<svg xmlns="http://www.w3.org/2000/svg" width="480" height="240" style="background:#f5deb3">
<!-- Homo sapiens photosynthetic skin pattern -->
<!-- IG type ⟨𐑦𐑱𐑰𐑹𐑓𐑨𐑲𐑵⊙𐑫𐑳𐑟⟩  Ħ=𐑱 Fibonacci-L chirality -->
<!-- Gray-Scott F=0.035 k=0.065 -->
<rect x="240" y="24" width="8" height="8" fill="#0bb205" opacity="0.92"/>
<rect x="248" y="24" width="8" height="8" fill="#05c900" opacity="0.92"/>
<rect x="256" y="24" width="8" height="8" fill="#02d700" opacity="0.92"/>
<rect x="264" y="24" width="8" height="8" fill="#01db00" opacity="0.92"/>
<rect x="272" y="24" width="8" height="8" fill="#04ce00" opacity="0.92"/>
<rect x="232" y="32" width="8" height="8" fill="#0ab704" opacity="0.92"/>
<rect x="240" y="32" width="8" height="8" fill="#02d600" opacity="0.92"/>
<rect x="248" y="32" width="8" height="8" fill="#00e300" opacity="0.92"/>
<rect x="256" y="32" width="8" height="8" fill="#00e300" opacity="0.92"/>
<rect x="264" y="32" width="8" height="8" fill="#00e300" opacity="0.92"/>
<rect x="272" y="32" width="8" height="8" fill="#00e300" opacity="0.92"/>
<rect x="280" y="32" width="8" height="8" fill="#05c900" opacity="0.92"/>
<rect x="232" y="40" width="8" height="8" fill="#03d200" opacity="0.92"/>
<rect x="240" y="40" width="8" height="8" fill="#00e300" opacity="0.92"/>
<rect x="248" y="40" width="8" height="8" fill="#00e300" opacity="0.92"/>
<rect x="256" y="40" width="8" height="8" fill="#00e300" opacity="0.92"/>
<rect x="264" y="40" width="8" height="8" fill="#00e300" opacity="0.92"/>
<rect x="272" y="40" width="8" height="8" fill="#00e300" opacity="0.92"/>
<rect x="280" y="40" width="8" height="8" fill="#03d200" opacity="0.92"/>
<rect x="224" y="48" width="8" height="8" fill="#0cad06" opacity="0.92"/>
<rect x="232" y="48" width="8" height="8" fill="#00df00" opacity="0.92"/>
<rect x="240" y="48" width="8" height="8" fill="#00e300" opacity="0.92"/>
<rect x="248" y="48" width="8" height="8" fill="#00e300" opacity="0.92"/>
<rect x="256" y="48" width="8" height="8" fill="#00e300" opacity="0.92"/>
<rect x="264" y="48" width="8" height="8" fill="#00e300" opacity="0.92"/>
<rect x="272" y="48" width="8" height="8" fill="#00e300" opacity="0.92"/>
<rect x="280" y="48" width="8" height="8" fill="#06c701" opacity="0.92"/>
<rect x="232" y="56" width="8" height="8" fill="#01d900" opacity="0.92"/>
<rect x="240" y="56" width="8" height="8" fill="#00e300" opacity="0.92"/>
<rect x="248" y="56" width="8" height="8" fill="#00e300" opacity="0.92"/>
<rect x="256" y="56" width="8" height="8" fill="#00e300" opacity="0.92"/>
<rect x="264" y="56" width="8" height="8" fill="#00e300" opacity="0.92"/>
<rect x="272" y="56" width="8" height="8" fill="#03d300" opacity="0.92"/>
<rect x="280" y="56" width="8" height="8" fill="#0cad06" opacity="0.92"/>
<rect x="232" y="64" width="8" height="8" fill="#08bc03" opacity="0.92"/>
<rect x="240" y="64" width="8" height="8" fill="#01d900" opacity="0.92"/>
<rect x="248" y="64" width="8" height="8" fill="#00e000" opacity="0.92"/>
<rect x="256" y="64" width="8" height="8" fill="#01da00" opacity="0.92"/>
<rect x="264" y="64" width="8" height="8" fill="#05c900" opacity="0.92"/>
<rect x="272" y="64" width="8" height="8" fill="#0caf05" opacity="0.92"/>
<rect x="248" y="72" width="8" height="8" fill="#0caf05" opacity="0.92"/>
<rect x="128" y="88" width="8" height="8" fill="#07c102" opacity="0.92"/>
<rect x="136" y="88" width="8" height="8" fill="#03d100" opacity="0.92"/>
<rect x="144" y="88" width="8" height="8" fill="#02d400" opacity="0.92"/>
<rect x="152" y="88" width="8" height="8" fill="#05c800" opacity="0.92"/>
<rect x="120" y="96" width="8" height="8" fill="#04cd00" opacity="0.92"/>
<rect x="128" y="96" width="8" height="8" fill="#00e200" opacity="0.92"/>
<rect x="136" y="96" width="8" height="8" fill="#00e300" opacity="0.92"/>
<rect x="144" y="96" width="8" height="8" fill="#00e300" opacity="0.92"/>
<rect x="152" y="96" width="8" height="8" fill="#00e300" opacity="0.92"/>
<rect x="160" y="96" width="8" height="8" fill="#04cd00" opacity="0.92"/>
<rect x="112" y="104" width="8" height="8" fill="#07c202" opacity="0.92"/>
<rect x="120" y="104" width="8" height="8" fill="#00e300" opacity="0.92"/>
<rect x="128" y="104" width="8" height="8" fill="#00e300" opacity="0.92"/>
<rect x="136" y="104" width="8" height="8" fill="#00e300" opacity="0.92"/>
<rect x="144" y="104" width="8" height="8" fill="#00e300" opacity="0.92"/>
<rect x="152" y="104" width="8" height="8" fill="#00e300" opacity="0.92"/>
<rect x="160" y="104" width="8" height="8" fill="#01db00" opacity="0.92"/>
<rect x="312" y="104" width="8" height="8" fill="#0caf05" opacity="0.92"/>
<rect x="320" y="104" width="8" height="8" fill="#06c601" opacity="0.92"/>
<rect x="328" y="104" width="8" height="8" fill="#03d200" opacity="0.92"/>
<rect x="336" y="104" width="8" height="8" fill="#03d100" opacity="0.92"/>
<rect x="344" y="104" width="8" height="8" fill="#08bd03" opacity="0.92"/>
<rect x="112" y="112" width="8" height="8" fill="#03d200" opacity="0.92"/>
<rect x="120" y="112" width="8" height="8" fill="#00e300" opacity="0.92"/>
<rect x="128" y="112" width="8" height="8" fill="#00e300" opacity="0.92"/>
<rect x="136" y="112" width="8" height="8" fill="#00e300" opacity="0.92"/>
<rect x="144" y="112" width="8" height="8" fill="#00e300" opacity="0.92"/>
<rect x="152" y="112" width="8" height="8" fill="#00e300" opacity="0.92"/>
<rect x="160" y="112" width="8" height="8" fill="#02d700" opacity="0.92"/>
<rect x="304" y="112" width="8" height="8" fill="#0ab504" opacity="0.92"/>
<rect x="312" y="112" width="8" height="8" fill="#03d100" opacity="0.92"/>
<rect x="320" y="112" width="8" height="8" fill="#00e200" opacity="0.92"/>
<rect x="328" y="112" width="8" height="8" fill="#00e300" opacity="0.92"/>
<rect x="336" y="112" width="8" height="8" fill="#00e300" opacity="0.92"/>
<rect x="344" y="112" width="8" height="8" fill="#00e000" opacity="0.92"/>
<rect x="352" y="112" width="8" height="8" fill="#0ab604" opacity="0.92"/>
<rect x="112" y="120" width="8" height="8" fill="#02d600" opacity="0.92"/>
<rect x="120" y="120" width="8" height="8" fill="#00e300" opacity="0.92"/>
<rect x="128" y="120" width="8" height="8" fill="#00e300" opacity="0.92"/>
<rect x="136" y="120" width="8" height="8" fill="#00e300" opacity="0.92"/>
<rect x="144" y="120" width="8" height="8" fill="#00e300" opacity="0.92"/>
<rect x="152" y="120" width="8" height="8" fill="#00e000" opacity="0.92"/>
<rect x="160" y="120" width="8" height="8" fill="#06c701" opacity="0.92"/>
<rect x="304" y="120" width="8" height="8" fill="#04cf00" opacity="0.92"/>
<rect x="312" y="120" width="8" height="8" fill="#00e300" opacity="0.92"/>
<rect x="320" y="120" width="8" height="8" fill="#00e300" opacity="0.92"/>
<rect x="328" y="120" width="8" height="8" fill="#00e300" opacity="0.92"/>
<rect x="336" y="120" width="8" height="8" fill="#00e300" opacity="0.92"/>
<rect x="344" y="120" width="8" height="8" fill="#00e300" opacity="0.92"/>
<rect x="352" y="120" width="8" height="8" fill="#06c501" opacity="0.92"/>
<rect x="112" y="128" width="8" height="8" fill="#05c800" opacity="0.92"/>
<rect x="120" y="128" width="8" height="8" fill="#00e300" opacity="0.92"/>
<rect x="128" y="128" width="8" height="8" fill="#00e300" opacity="0.92"/>
<rect x="136" y="128" width="8" height="8" fill="#00e300" opacity="0.92"/>
<rect x="144" y="128" width="8" height="8" fill="#00e000" opacity="0.92"/>
<rect x="152" y="128" width="8" height="8" fill="#04cd00" opacity="0.92"/>
<rect x="160" y="128" width="8" height="8" fill="#0cad06" opacity="0.92"/>
<rect x="296" y="128" width="8" height="8" fill="#0ab704" opacity="0.92"/>
<rect x="304" y="128" width="8" height="8" fill="#00de00" opacity="0.92"/>
<rect x="312" y="128" width="8" height="8" fill="#00e300" opacity="0.92"/>
<rect x="320" y="128" width="8" height="8" fill="#00e300" opacity="0.92"/>
<rect x="328" y="128" width="8" height="8" fill="#00e300" opacity="0.92"/>
<rect x="336" y="128" width="8" height="8" fill="#00e300" opacity="0.92"/>
<rect x="344" y="128" width="8" height="8" fill="#00e300" opacity="0.92"/>
<rect x="352" y="128" width="8" height="8" fill="#06c401" opacity="0.92"/>
<rect x="120" y="136" width="8" height="8" fill="#05cb00" opacity="0.92"/>
<rect x="128" y="136" width="8" height="8" fill="#01d900" opacity="0.92"/>
<rect x="136" y="136" width="8" height="8" fill="#02d500" opacity="0.92"/>
<rect x="144" y="136" width="8" height="8" fill="#06c501" opacity="0.92"/>
<rect x="152" y="136" width="8" height="8" fill="#0cac06" opacity="0.92"/>
<rect x="296" y="136" width="8" height="8" fill="#09bb03" opacity="0.92"/>
<rect x="304" y="136" width="8" height="8" fill="#00e300" opacity="0.92"/>
<rect x="312" y="136" width="8" height="8" fill="#00e300" opacity="0.92"/>
<rect x="320" y="136" width="8" height="8" fill="#00e300" opacity="0.92"/>
<rect x="328" y="136" width="8" height="8" fill="#00e300" opacity="0.92"/>
<rect x="336" y="136" width="8" height="8" fill="#00e300" opacity="0.92"/>
<rect x="344" y="136" width="8" height="8" fill="#00de00" opacity="0.92"/>
<rect x="352" y="136" width="8" height="8" fill="#0ab604" opacity="0.92"/>
<rect x="296" y="144" width="8" height="8" fill="#0caf05" opacity="0.92"/>
<rect x="304" y="144" width="8" height="8" fill="#01db00" opacity="0.92"/>
<rect x="312" y="144" width="8" height="8" fill="#00e300" opacity="0.92"/>
<rect x="320" y="144" width="8" height="8" fill="#00e300" opacity="0.92"/>
<rect x="328" y="144" width="8" height="8" fill="#00e300" opacity="0.92"/>
<rect x="336" y="144" width="8" height="8" fill="#00e000" opacity="0.92"/>
<rect x="344" y="144" width="8" height="8" fill="#06c701" opacity="0.92"/>
<rect x="304" y="152" width="8" height="8" fill="#09ba03" opacity="0.92"/>
<rect x="312" y="152" width="8" height="8" fill="#03d300" opacity="0.92"/>
<rect x="320" y="152" width="8" height="8" fill="#01d900" opacity="0.92"/>
<rect x="328" y="152" width="8" height="8" fill="#03d200" opacity="0.92"/>
<rect x="336" y="152" width="8" height="8" fill="#08bf02" opacity="0.92"/>
<rect x="192" y="176" width="8" height="8" fill="#0bb305" opacity="0.92"/>
<rect x="200" y="176" width="8" height="8" fill="#05cb00" opacity="0.92"/>
<rect x="208" y="176" width="8" height="8" fill="#01d900" opacity="0.92"/>
<rect x="216" y="176" width="8" height="8" fill="#00dd00" opacity="0.92"/>
<rect x="224" y="176" width="8" height="8" fill="#03d000" opacity="0.92"/>
<rect x="232" y="176" width="8" height="8" fill="#0cae06" opacity="0.92"/>
<rect x="184" y="184" width="8" height="8" fill="#0ab604" opacity="0.92"/>
<rect x="192" y="184" width="8" height="8" fill="#01d800" opacity="0.92"/>
<rect x="200" y="184" width="8" height="8" fill="#00e300" opacity="0.92"/>
<rect x="208" y="184" width="8" height="8" fill="#00e300" opacity="0.92"/>
<rect x="216" y="184" width="8" height="8" fill="#00e300" opacity="0.92"/>
<rect x="224" y="184" width="8" height="8" fill="#00e300" opacity="0.92"/>
<rect x="232" y="184" width="8" height="8" fill="#04cc00" opacity="0.92"/>
<rect x="184" y="192" width="8" height="8" fill="#03d100" opacity="0.92"/>
<rect x="192" y="192" width="8" height="8" fill="#00e300" opacity="0.92"/>
<rect x="200" y="192" width="8" height="8" fill="#00e300" opacity="0.92"/>
<rect x="208" y="192" width="8" height="8" fill="#00e300" opacity="0.92"/>
<rect x="216" y="192" width="8" height="8" fill="#00e300" opacity="0.92"/>
<rect x="224" y="192" width="8" height="8" fill="#00e300" opacity="0.92"/>
<rect x="232" y="192" width="8" height="8" fill="#02d500" opacity="0.92"/>
<rect x="184" y="200" width="8" height="8" fill="#00de00" opacity="0.92"/>
<rect x="192" y="200" width="8" height="8" fill="#00e300" opacity="0.92"/>
<rect x="200" y="200" width="8" height="8" fill="#00e300" opacity="0.92"/>
<rect x="208" y="200" width="8" height="8" fill="#00e300" opacity="0.92"/>
<rect x="216" y="200" width="8" height="8" fill="#00e300" opacity="0.92"/>
<rect x="224" y="200" width="8" height="8" fill="#00e300" opacity="0.92"/>
<rect x="232" y="200" width="8" height="8" fill="#05c900" opacity="0.92"/>
<rect x="184" y="208" width="8" height="8" fill="#02d700" opacity="0.92"/>
<rect x="192" y="208" width="8" height="8" fill="#00e300" opacity="0.92"/>
<rect x="200" y="208" width="8" height="8" fill="#00e300" opacity="0.92"/>
<rect x="208" y="208" width="8" height="8" fill="#00e300" opacity="0.92"/>
<rect x="216" y="208" width="8" height="8" fill="#00e300" opacity="0.92"/>
<rect x="224" y="208" width="8" height="8" fill="#03d200" opacity="0.92"/>
<rect x="232" y="208" width="8" height="8" fill="#0bb005" opacity="0.92"/>
<rect x="184" y="216" width="8" height="8" fill="#09b903" opacity="0.92"/>
<rect x="192" y="216" width="8" height="8" fill="#02d700" opacity="0.92"/>
<rect x="200" y="216" width="8" height="8" fill="#00de00" opacity="0.92"/>
<rect x="208" y="216" width="8" height="8" fill="#02d700" opacity="0.92"/>
<rect x="216" y="216" width="8" height="8" fill="#06c701" opacity="0.92"/>
<rect x="224" y="216" width="8" height="8" fill="#0cae06" opacity="0.92"/>
<rect x="200" y="224" width="8" height="8" fill="#0cae06" opacity="0.92"/>
<text x="4" y="234" font-size="10" fill="#333" font-family="monospace">Ħ=𐑱 L-Fibonacci  9.6% coverage  ZFC_fe μ∘δ=id</text>
</svg>