<?xml version="1.0" encoding="UTF-8" standalone="no"?>
<!-- Created with Inkscape (http://www.inkscape.org/) -->

<svg
   version="1.1"
   id="svg1"
   width="432"
   height="306.66666"
   viewBox="0 0 432 306.66666"
   sodipodi:docname="qdot_fig4_edge_states.svg"
   inkscape:version="1.4.3 (0d15f75, 2025-12-25)"
   xmlns:inkscape="http://www.inkscape.org/namespaces/inkscape"
   xmlns:sodipodi="http://sodipodi.sourceforge.net/DTD/sodipodi-0.dtd"
   xmlns="http://www.w3.org/2000/svg"
   xmlns:svg="http://www.w3.org/2000/svg">
  <defs
     id="defs1" />
  <sodipodi:namedview
     id="namedview1"
     pagecolor="#ffffff"
     bordercolor="#000000"
     borderopacity="0.25"
     inkscape:showpageshadow="2"
     inkscape:pageopacity="0.0"
     inkscape:pagecheckerboard="0"
     inkscape:deskcolor="#d1d1d1"
     inkscape:zoom="1.9114942"
     inkscape:cx="178.1329"
     inkscape:cy="-7.0625379"
     inkscape:window-width="1920"
     inkscape:window-height="1009"
     inkscape:window-x="-8"
     inkscape:window-y="-8"
     inkscape:window-maximized="1"
     inkscape:current-layer="g1">
    <inkscape:page
       x="0"
       y="0"
       id="page1"
       width="432"
       height="306.66666"
       margin="0"
       bleed="0" />
  </sodipodi:namedview>
  <g
     id="g1"
     inkscape:groupmode="layer"
     inkscape:label="">
    <path
       id="path1"
       d="M 111.84608,49.448008 V 48.9659 c -0.26101,0.02137 -1.1212,0.02137 -1.43703,0.02137 -0.30468,0 -1.18622,0 -1.4361,-0.02137 v 0.482108 h 0.24988 c 0.30468,0 0.32698,0 0.588,0.03344 0.32698,0.04273 0.3372,0.05388 0.3372,0.304682 v 4.651073 l -4.42256,-5.330112 c -0.10961,-0.130061 -0.11984,-0.141196 -0.34927,-0.141196 h -2.45234 V 49.448 h 1.17879 v 6.353776 c 0,0.239658 -0.0103,0.250807 -0.3084,0.294465 -0.196,0.02136 -0.41337,0.03251 -0.62051,0.03251 h -0.24988 v 0.482106 c 0.24988,-0.02136 1.12492,-0.02136 1.4296,-0.02136 0.31583,0 1.18622,0 1.44818,0.02136 v -0.482102 h -0.26196 c -0.29353,0 -0.31583,0 -0.588,-0.03251 -0.3149,-0.04366 -0.32605,-0.05482 -0.32605,-0.294465 v -5.971991 l 5.50103,6.639881 c 0.11984,0.130964 0.13007,0.141193 0.27218,0.141193 0.27216,0 0.27216,-0.065 0.27216,-0.326048 V 49.78613 c 0,-0.250806 0.0103,-0.261953 0.29354,-0.304683 0.20716,-0.0223 0.42452,-0.03344 0.62053,-0.03344 z m 6.32869,4.728173 c 0,-1.505771 -1.02366,-2.608392 -2.76909,-2.608392 -1.81788,0 -2.77559,1.157429 -2.77559,2.608392 0,1.451892 1.01251,2.500635 2.76538,2.500635 1.81045,0 2.7793,-1.103549 2.7793,-2.500635 z m -1.33948,-0.119835 c 0,0.925201 0,2.21732 -1.42961,2.21732 -1.44725,0 -1.44725,-1.302338 -1.44725,-2.21732 0,-0.525765 0,-1.081254 0.20622,-1.47697 0.25081,-0.445881 0.75149,-0.641882 1.23082,-0.641882 0.63073,0 1.02644,0.293537 1.22244,0.609366 0.21738,0.395719 0.21738,0.972574 0.21738,1.509486 z m 8.36766,2.554516 v -0.482107 h -0.76171 v -2.925148 c 0,-1.058961 -0.45704,-1.603305 -1.67671,-1.603305 -0.80536,0 -1.49461,0.392001 -1.87546,1.222451 h -0.0117 v -1.222451 l -1.87269,0.08732 v 0.47839 c 0.68646,0 0.76263,0 0.76263,0.435662 v 3.527087 h -0.76263 v 0.482107 c 0.2508,-0.02137 1.05616,-0.02137 1.36085,-0.02137 0.31584,0 1.1212,0 1.38318,0.02137 v -0.482103 h -0.77389 v -2.369661 c 0,-1.201084 0.89641,-1.789089 1.60425,-1.789089 0.41335,0 0.64188,0.261025 0.64188,1.113767 v 3.044983 h -0.76171 v 0.482107 c 0.26103,-0.02136 1.05618,-0.02136 1.37202,-0.02136 0.30467,0 1.12118,0 1.37106,0.02136 z m 3.74538,-1.966512 v -1.016232 h -3.33108 v 1.016231 z m 9.70252,1.966512 v -0.482107 h -1.0562 l -2.85548,-7.065321 c -0.0762,-0.196003 -0.0986,-0.24988 -0.35948,-0.24988 -0.28332,0 -0.30469,0.05389 -0.38085,0.24988 l -2.75796,6.804297 c -0.0762,0.173707 -0.0762,0.195071 -0.39201,0.228513 -0.27216,0.03251 -0.3149,0.03251 -0.56569,0.03251 h -0.19601 v 0.482104 c 0.28332,-0.02136 0.95772,-0.02136 1.27354,-0.02136 0.30469,0 1.11377,0 1.37573,0.02136 v -0.482104 c -0.2508,0 -0.67532,0 -0.98371,-0.119835 0.0325,-0.09846 0.0325,-0.119832 0.0549,-0.163498 l 0.5908,-1.450964 h 2.97254 l 0.70687,1.734283 h -1.04501 v 0.482106 c 0.34831,-0.02136 1.42959,-0.02136 1.85412,-0.02136 0.35949,0 1.49183,0 1.76399,0.02136 z m -3.47602,-2.69571 h -2.59073 l 1.30604,-3.211256 z m 10.43915,0.217366 c 0,-1.53085 -1.04875,-2.53222 -2.57309,-2.53222 -0.65303,0 -1.17507,0.20622 -1.6321,0.565708 V 48.87858 l -1.92007,0.0873 v 0.482107 c 0.68554,0 0.76171,0 0.76171,0.435661 v 6.727198 h 0.46818 c 0.18857,-0.206218 0.38456,-0.424515 0.55919,-0.645593 0.56571,0.591716 1.17601,0.711545 1.6219,0.711545 1.53456,0 2.71428,-0.94006 2.71428,-2.544296 z m -1.34228,-0.01029 c 0,0.489536 0,1.135133 -0.26196,1.538281 -0.34834,0.536912 -0.87038,0.645595 -1.21873,0.645595 -0.76171,0 -1.16485,-0.536911 -1.32836,-0.776572 v -2.826617 c 0.39201,-0.536913 0.96887,-0.732914 1.43705,-0.732914 1.372,0 1.372,1.408236 1.372,2.152298 z m 7.46754,1.189937 c 0,-0.174634 -0.17465,-0.174634 -0.23966,-0.174634 -0.17465,0 -0.18486,0.03344 -0.2508,0.185782 -0.29725,0.71805 -1.02645,0.95028 -1.55966,0.95028 -1.61168,0 -1.62187,-1.49834 -1.62187,-2.118855 h 3.34501 c 0.26103,0 0.32698,0 0.32698,-0.283317 0,-0.340915 -0.0874,-1.168576 -0.58801,-1.69434 -0.47189,-0.468174 -1.0924,-0.609369 -1.74543,-0.609369 -1.73056,0 -2.66691,1.135133 -2.66691,2.53222 0,1.560577 1.14258,2.576808 2.81925,2.576808 1.68041,0 2.1811,-1.17972 2.1811,-1.364575 z m -1.02739,-1.488119 h -2.6446 c 0.0213,-0.457027 0.0325,-0.892687 0.27124,-1.287477 0.20715,-0.359488 0.59914,-0.599148 1.06731,-0.599148 1.19736,0 1.29492,1.332061 1.30605,1.886625 z m 4.56097,2.786741 v -0.482109 h -0.77286 v -7.250176 l -1.91913,0.0873 v 0.482105 c 0.68924,0 0.76542,0 0.76542,0.435661 v 6.245091 h -0.76542 v 0.482106 c 0.24989,-0.02136 1.04874,-0.02136 1.34229,-0.02136 0.30469,0 1.08868,0 1.3497,0.02136 z m 3.40076,0 v -0.482109 h -0.69666 v -4.528459 l -1.88386,0.08732 v 0.478391 c 0.65303,0 0.72921,0 0.72921,0.435661 v 3.527086 h -0.76173 v 0.482108 c 0.2508,-0.02137 1.02367,-0.02137 1.31719,-0.02137 0.31585,0 1.02368,0 1.29585,0.02137 z m -0.55549,-6.770785 c 0,-0.457028 -0.38083,-0.809085 -0.80537,-0.809085 -0.45795,0 -0.8063,0.373425 -0.8063,0.809085 0,0.460741 0.37064,0.798866 0.79515,0.798866 0.45703,0 0.81652,-0.363206 0.81652,-0.798866 z m 6.94457,6.531196 c 0,-0.242447 -0.0975,-0.242447 -0.26102,-0.242447 -0.7004,-0.01109 -0.7004,-0.184853 -0.7004,-0.446809 v -2.402171 c 0,-1.026449 -0.80537,-1.711989 -2.37246,-1.711989 -0.62052,0 -1.94143,0.05389 -1.94143,0.990223 0,0.471889 0.36228,0.667889 0.66698,0.667889 0.32696,0 0.65393,-0.23966 0.65393,-0.656741 0,-0.218296 -0.0762,-0.414297 -0.27215,-0.533198 0.36969,-0.09847 0.63072,-0.09847 0.849,-0.09847 0.75058,0 1.2076,0.413367 1.2076,1.332063 v 0.445881 c -1.75192,0 -3.51964,0.493251 -3.51964,1.726849 0,1.016235 1.2884,1.234527 2.05009,1.234527 0.86019,0 1.40453,-0.46817 1.62281,-0.962353 0,0.414296 0,0.896402 1.12121,0.896402 h 0.56943 c 0.23965,0 0.32605,0 0.32605,-0.239659 z m -2.16995,-1.309769 c 0,1.045029 -0.9354,1.244744 -1.28376,1.244744 -0.54433,0 -1.00137,-0.362275 -1.00137,-0.874107 0,-1.016235 1.19736,-1.364575 2.28513,-1.419382 z m 8.90085,1.549429 v -0.482107 h -0.76169 V 53.2036 c 0,-1.05896 -0.45705,-1.603305 -1.67577,-1.603305 -0.81002,0 -1.49556,0.392001 -1.87642,1.222452 h -0.0117 v -1.222452 l -1.87175,0.08732 v 0.478391 c 0.68552,0 0.7617,0 0.7617,0.435661 v 3.527086 h -0.7617 v 0.482109 c 0.24987,-0.02136 1.05524,-0.02136 1.35992,-0.02136 0.31583,0 1.12121,0 1.38314,0.02136 v -0.482119 h -0.77285 v -2.369659 c 0,-1.201084 0.89269,-1.789088 1.60329,-1.789088 0.41431,0 0.64282,0.261026 0.64282,1.113768 v 3.044979 h -0.76263 v 0.48211 c 0.26196,-0.02136 1.05617,-0.02136 1.372,-0.02136 0.30468,0 1.12121,0 1.37108,0.02136 z m 9.79727,-1.298623 c 0,-0.174635 -0.17371,-0.174635 -0.23873,-0.174635 -0.17464,0 -0.18577,0.03344 -0.25081,0.185783 -0.29352,0.71805 -1.02367,0.95028 -1.55687,0.95028 -1.61445,0 -1.62558,-1.49834 -1.62558,-2.118855 h 3.34594 c 0.26104,0 0.32605,0 0.32605,-0.283317 0,-0.340914 -0.0863,-1.168576 -0.58708,-1.694339 -0.46816,-0.468175 -1.08868,-0.60937 -1.74171,-0.60937 -1.73521,0 -2.67063,1.135133 -2.67063,2.53222 0,1.560577 1.14257,2.576809 2.82299,2.576809 1.67576,0 2.17643,-1.17972 2.17643,-1.364576 z m -1.02273,-1.48812 h -2.64926 c 0.0224,-0.457026 0.0324,-0.892686 0.27216,-1.287476 0.20715,-0.359487 0.59916,-0.599148 1.07104,-0.599148 1.19738,0 1.29491,1.33206 1.30606,1.886624 z m 7.92085,2.786743 v -0.482107 c -0.68554,0 -0.77288,0 -0.77288,-0.43566 v -6.814516 l -1.91539,0.0873 v 0.482104 c 0.68552,0 0.76169,0 0.76169,0.435661 v 2.249831 c -0.23965,-0.207148 -0.72918,-0.533195 -1.49184,-0.533195 -1.58192,0 -2.70312,0.979075 -2.70312,2.543367 0,1.58194 1.09983,2.533148 2.5731,2.533148 0.62051,0 1.13235,-0.207148 1.56707,-0.580571 v 0.580571 z m -1.98137,-1.12487 c -0.46818,0.675322 -1.03387,0.820231 -1.42587,0.820231 -1.38595,0 -1.38595,-1.411021 -1.38595,-2.140219 0,-0.526693 0,-1.082184 0.2508,-1.506698 0.33719,-0.623302 0.99395,-0.689256 1.25496,-0.689256 0.45703,0 0.9475,0.196002 1.30606,0.689256 z m 8.44012,-3.331086 c 0,-0.261025 -0.19601,-0.620516 -0.66418,-0.620516 -0.4784,0 -0.93541,0.229443 -1.16394,0.43566 -0.45795,-0.272169 -0.89638,-0.369706 -1.46301,-0.369706 -1.53459,0 -2.14396,0.860175 -2.14396,1.636747 0,0.347414 0.10866,0.797939 0.57687,1.17879 -0.18487,0.20715 -0.39202,0.601939 -0.39202,1.005088 0,0.479319 0.26103,0.885254 0.48955,1.070109 -0.26104,0.06594 -0.94656,0.31583 -0.94656,0.962355 0,0.653026 0.71804,1.396158 2.76443,1.396158 1.8439,0 2.77931,-0.601936 2.77931,-1.439818 0,-0.972573 -0.65304,-1.303266 -0.92519,-1.433315 -0.53319,-0.272171 -1.24104,-0.272171 -2.22383,-0.272171 -0.28331,0 -0.76169,0 -0.82764,-0.01109 -0.46818,-0.07618 -0.60939,-0.500684 -0.60939,-0.711549 0,-0.08638 0.0117,-0.249877 0.14117,-0.402219 0.53414,0.293536 1.15465,0.293536 1.31721,0.293536 1.53921,0 2.14857,-0.860172 2.14857,-1.635816 0,-0.56664 -0.32697,-0.972575 -0.45701,-1.082187 0.32605,-0.173705 0.58708,-0.217366 0.77285,-0.23873 -0.0333,0.05388 -0.0659,0.09753 -0.0659,0.23873 0,0.229444 0.16357,0.446807 0.4468,0.446807 0.29354,0 0.44586,-0.217363 0.44586,-0.446807 z m -2.31857,1.082185 c 0,0.510902 0,1.276328 -0.97256,1.276328 -0.96888,0 -0.96888,-0.765426 -0.96888,-1.276328 0,-0.511832 0,-1.278187 0.96888,-1.278187 0.97256,0 0.97256,0.766355 0.97256,1.278187 z m 1.24103,4.226559 c 0,0.380856 -0.39202,1.023664 -1.85411,1.023664 -1.46955,0 -1.87272,-0.620514 -1.87272,-1.033881 0,-0.722694 0.70785,-0.722694 0.87133,-0.722694 h 1.26241 c 0.82022,0 1.59309,0.142129 1.59309,0.732911 z m 6.62595,-2.151365 c 0,-0.174635 -0.17466,-0.174635 -0.23966,-0.174635 -0.1737,0 -0.18488,0.03344 -0.24989,0.185783 -0.29448,0.71805 -1.02365,0.95028 -1.55685,0.95028 -1.61446,0 -1.62561,-1.49834 -1.62561,-2.118855 h 3.345 c 0.26196,0 0.32701,0 0.32701,-0.283318 0,-0.340913 -0.0874,-1.168574 -0.58802,-1.69434 -0.46816,-0.468173 -1.0887,-0.609368 -1.74171,-0.609368 -1.73429,0 -2.67062,1.135134 -2.67062,2.53222 0,1.560577 1.14348,2.576808 2.82295,2.576808 1.67668,0 2.1774,-1.179719 2.1774,-1.364575 z m -1.02369,-1.488121 h -2.64832 c 0.0213,-0.457025 0.0325,-0.892685 0.27217,-1.287476 0.20622,-0.359488 0.59821,-0.599148 1.07011,-0.599148 1.19738,0 1.29585,1.33206 1.30604,1.886624 z m 12.05826,0.308399 c 0,-1.541997 -1.0339,-2.532219 -2.53688,-2.532219 -0.65303,0 -1.21874,0.217366 -1.66554,0.576856 V 51.60034 l -1.91914,0.08732 v 0.478391 c 0.68554,0 0.76172,0 0.76172,0.435661 v 5.6896 h -0.76172 v 0.482107 c 0.25081,-0.02137 1.05619,-0.02137 1.36087,-0.02137 0.31953,0 1.12491,0 1.38593,0.02137 v -0.48211 h -0.77286 v -2.141147 c 0.28331,0.254523 0.77286,0.526695 1.43703,0.526695 1.52343,0 2.71059,-0.928914 2.71059,-2.5443 z m -1.33951,0 c 0,1.604236 -0.79422,2.17366 -1.50205,2.17366 -0.47838,0 -0.9577,-0.243377 -1.30606,-0.765426 v -2.826684 c 0.41337,-0.536913 1.00138,-0.711549 1.43703,-0.711549 0.71806,0 1.37108,0.656742 1.37108,2.129999 z m 6.52099,-1.650679 c 0,-0.565711 -0.57687,-0.88154 -1.11006,-0.88154 -0.88246,0 -1.26332,0.76171 -1.41566,1.233598 h -0.0102 V 51.60034 l -1.8216,0.08732 v 0.478391 c 0.68556,0 0.76171,0 0.76171,0.435661 v 3.527087 h -0.76171 v 0.482108 c 0.2499,-0.02136 1.08777,-0.02136 1.39337,-0.02136 0.32978,0 1.22246,0 1.49464,0.02136 v -0.482108 h -0.96887 v -2.028751 c 0,-0.362276 0.0762,-2.13 1.38224,-2.13 -0.16341,0.119834 -0.23967,0.304682 -0.23967,0.511831 0,0.449596 0.37064,0.645596 0.64282,0.645596 0.28331,0 0.65302,-0.196 0.65302,-0.645596 z m 6.25901,1.69434 c 0,-1.505771 -1.02273,-2.608392 -2.76816,-2.608392 -1.81788,0 -2.77559,1.157427 -2.77559,2.608392 0,1.451891 1.01159,2.500636 2.76445,2.500636 1.81045,0 2.7793,-1.10355 2.7793,-2.500636 z m -1.33856,-0.119833 c 0,0.925199 0,2.217318 -1.4296,2.217318 -1.44818,0 -1.44818,-1.302337 -1.44818,-2.217318 0,-0.525765 0,-1.081255 0.20714,-1.476972 0.24989,-0.445882 0.75058,-0.641881 1.2299,-0.641881 0.63538,0 1.02738,0.293537 1.22247,0.609367 0.21827,0.395717 0.21827,0.972574 0.21827,1.509486 z m 5.8531,1.17972 v -0.602835 h -0.45795 v 0.580573 c 0,0.740344 -0.33721,1.05989 -0.68555,1.05989 -0.66789,0 -0.66789,-0.744059 -0.66789,-0.993937 V 52.14471 h 1.60424 v -0.479323 h -1.60424 v -2.129998 h -0.46818 c -0.0102,1.103551 -0.54341,2.206172 -1.64323,2.238683 v 0.370638 h 0.90382 v 3.102571 c 0,1.178795 0.91405,1.4296 1.71199,1.4296 0.82767,0 1.30699,-0.624229 1.30699,-1.440746 z m 6.06303,0.07618 c 0,-0.174634 -0.17464,-0.174634 -0.23966,-0.174634 -0.17372,0 -0.18488,0.03344 -0.2499,0.185783 -0.29446,0.718051 -1.02365,0.950278 -1.55684,0.950278 -1.61168,0 -1.6219,-1.498337 -1.6219,-2.118854 h 3.34131 c 0.26197,0 0.32699,0 0.32699,-0.283317 0,-0.340913 -0.0874,-1.168575 -0.58802,-1.69434 -0.46818,-0.468173 -1.08869,-0.609367 -1.74172,-0.609367 -1.73427,0 -2.67061,1.135132 -2.67061,2.532219 0,1.560577 1.14721,2.576809 2.82296,2.576809 1.6767,0 2.17739,-1.17972 2.17739,-1.364577 z m -1.02368,-1.488116 h -2.64462 c 0.0213,-0.457025 0.0324,-0.892686 0.27218,-1.287474 0.20621,-0.359491 0.59821,-0.599151 1.06638,-0.599151 1.19739,0 1.29584,1.332063 1.30606,1.886625 z m 6.57578,1.488121 c 0,-0.141194 -0.11985,-0.141194 -0.22943,-0.141194 -0.1737,0 -0.18486,0.01029 -0.23874,0.152339 -0.0874,0.206219 -0.38178,0.95028 -1.40453,0.95028 -1.5717,0 -1.5717,-1.694341 -1.5717,-2.195026 0,-0.656741 0.0117,-2.108635 1.47327,-2.108635 0.0762,0 0.73011,0.0223 0.73011,0.07618 0,0 -0.0117,0.0223 -0.0334,0.03251 -0.0325,0.03344 -0.17371,0.196 -0.17371,0.479319 0,0.47189 0.36971,0.656743 0.65303,0.656743 0.22851,0 0.65303,-0.141194 0.65303,-0.667889 0,-0.914052 -1.27356,-0.979075 -1.87177,-0.979075 -1.98509,0 -2.75794,1.287474 -2.75794,2.57588 0,1.505769 1.05618,2.533148 2.692,2.533148 1.74171,0 2.07984,-1.288405 2.07984,-1.364574 z m 4.50989,-0.07618 v -0.602867 h -0.45703 v 0.580574 c 0,0.740343 -0.33719,1.05989 -0.68556,1.05989 -0.66414,0 -0.66414,-0.74406 -0.66414,-0.993938 v -3.135084 h 1.59959 V 51.665365 H 241.804 v -2.13 h -0.46819 c -0.0117,1.103551 -0.54433,2.206172 -1.64789,2.238682 v 0.37064 h 0.90385 v 3.102571 c 0,1.178796 0.91775,1.429599 1.71291,1.429599 0.82673,0 1.30605,-0.624228 1.30605,-1.440745 z m 3.82062,1.374793 v -0.482106 h -0.69669 v -4.528461 l -1.88291,0.08732 v 0.478396 c 0.65302,0 0.7292,0 0.7292,0.43566 V 56.1288 h -0.76169 v 0.482107 c 0.24985,-0.02136 1.02272,-0.02136 1.3172,-0.02136 0.31582,0 1.02272,0 1.29489,0.02136 z m -0.55455,-6.770856 c 0,-0.457026 -0.3818,-0.809086 -0.8063,-0.809086 -0.45703,0 -0.80537,0.373425 -0.80537,0.809086 0,0.460742 0.37064,0.798867 0.79515,0.798867 0.45702,0 0.81652,-0.363207 0.81652,-0.798867 z m 6.82473,4.336172 c 0,-1.50577 -1.02272,-2.60839 -2.76447,-2.60839 -1.82158,0 -2.77929,1.157426 -2.77929,2.60839 0,1.451892 1.01158,2.500636 2.76817,2.500636 1.80672,0 2.77559,-1.10355 2.77559,-2.500636 z m -1.33858,-0.119833 c 0,0.925199 0,2.217319 -1.42589,2.217319 -1.45186,0 -1.45186,-1.302338 -1.45186,-2.217319 0,-0.525765 0,-1.081255 0.20714,-1.476972 0.24987,-0.445882 0.75054,-0.641881 1.2336,-0.641881 0.63164,0 1.02365,0.293537 1.21872,0.609366 0.21829,0.395721 0.21829,0.972576 0.21829,1.509487 z m 8.36766,2.554514 v -0.482107 h -0.7626 v -2.925151 c 0,-1.05896 -0.45706,-1.603304 -1.6758,-1.603304 -0.80628,0 -1.49183,0.392002 -1.87267,1.222451 h -0.0117 v -1.222448 l -1.87546,0.08732 v 0.478387 c 0.68553,0 0.76169,0 0.76169,0.435663 v 3.527088 h -0.76169 v 0.482105 c 0.24988,-0.02137 1.05617,-0.02137 1.36087,-0.02137 0.31582,0 1.12491,0 1.38594,0.02137 v -0.482105 h -0.77286 v -2.36966 c 0,-1.201087 0.89269,-1.78909 1.59958,-1.78909 0.41431,0 0.64279,0.261025 0.64279,1.11377 v 3.04498 h -0.76169 v 0.482105 c 0.26102,-0.02137 1.05523,-0.02137 1.37108,-0.02137 0.30468,0 1.1212,0 1.37201,0.02137 z m 8.59897,2.664128 c 0,-0.04366 0,-0.06594 -0.20622,-0.272172 -1.24101,-1.244746 -1.72035,-3.201039 -1.72035,-5.163838 0,-2.195023 0.54434,-3.998974 1.78538,-5.253936 0.13093,-0.14213 0.14116,-0.152341 0.14116,-0.196002 0,-0.130966 -0.13005,-0.130966 -0.18485,-0.130966 -0.0975,0 -0.11986,0 -0.41337,0.228515 -1.58936,1.288403 -2.35481,3.331086 -2.35481,5.33754 0,2.053831 0.77659,4.042635 2.34364,5.341258 0.29449,0.23966 0.31586,0.23966 0.42454,0.23966 0.0547,0 0.18485,0 0.18485,-0.130059 z"
       style="fill:#000000;fill-opacity:1;fill-rule:nonzero;stroke:none;stroke-width:0.928914" />
    <path
       id="path2"
       d="m 277.39998,54.872865 h -0.23966 c -0.0539,0.287035 -0.10867,0.580573 -0.20621,0.809084 -0.055,0.185785 -0.0874,0.272174 -0.73013,0.272174 h -0.8704 c 0.13108,-0.620515 0.44588,-1.157429 0.90385,-1.854113 0.52204,-0.809085 1.03389,-1.618169 1.03389,-2.543369 0,-1.541997 -1.46956,-2.786742 -3.32367,-2.786742 -1.86155,0 -3.32087,1.254965 -3.32087,2.786742 0,0.914054 0.5016,1.712918 1.02368,2.522005 0.46815,0.729195 0.79512,1.254962 0.92518,1.875477 h -0.88153 c -0.6419,0 -0.67534,-0.0864 -0.72921,-0.261026 -0.0874,-0.228513 -0.1524,-0.555489 -0.20715,-0.820232 h -0.23966 l 0.3595,1.737999 h 1.72034 c 0.23873,0 0.26103,0 0.26103,-0.196002 0,-0.797937 -0.3595,-1.770508 -0.57685,-2.336216 -0.32697,-0.875039 -0.62052,-1.694342 -0.62052,-2.533151 0,-1.715706 1.18623,-2.55823 2.28606,-2.55823 1.10261,0 2.28978,0.842524 2.28978,2.55823 0,0.838809 -0.30563,1.680405 -0.62052,2.500637 -0.18579,0.533196 -0.57778,1.559647 -0.57778,2.358514 0,0.206218 0.0334,0.206218 0.28332,0.206218 h 1.70919 z"
       style="fill:#000000;fill-opacity:1;fill-rule:nonzero;stroke:none;stroke-width:0.928914" />
    <path
       id="path3"
       d="m 281.55875,53.838984 c 0,-2.05383 -0.77659,-4.042635 -2.35573,-5.341257 -0.28241,-0.239661 -0.30469,-0.239661 -0.41338,-0.239661 -0.0649,0 -0.19601,0 -0.19601,0.130964 0,0.04366 0,0.06502 0.21829,0.272174 1.24013,1.244744 1.71944,3.200108 1.71944,5.162906 0,2.195952 -0.54436,3.998974 -1.78539,5.254867 -0.14117,0.141194 -0.15238,0.152341 -0.15238,0.196001 0,0.13006 0.13107,0.13006 0.19602,0.13006 0.0983,0 0.11985,0 0.40311,-0.228514 1.59961,-1.288406 2.36597,-3.331089 2.36597,-5.337544 z"
       style="fill:#000000;fill-opacity:1;fill-rule:nonzero;stroke:none;stroke-width:0.928914" />
    <path
       id="path4"
       d="M 76.891,47.758 H 247.11 V 81.883 H 76.891 Z"
       style="fill:#ceced2;fill-opacity:1;fill-rule:nonzero;stroke:none"
       transform="scale(1.3333333)" />
    <path
       id="path5"
       d="M 76.891,161.496 H 247.11 v 34.121 H 76.891 Z"
       style="fill:#ceced2;fill-opacity:1;fill-rule:nonzero;stroke:none"
       transform="scale(1.3333333)" />
    <path
       id="path6"
       d="m 94.492,66.984 c 0,-0.168 -0.168,-0.168 -0.203,-0.168 -0.148,0 -0.148,0.02 -0.242,0.258 -0.332,0.985 -1.109,1.356 -1.848,1.356 -0.887,0 -2.051,-0.742 -2.051,-2.836 0,-2.207 1.125,-2.871 1.977,-2.871 0.184,0 0.941,0.015 1.461,0.371 -0.297,0.054 -0.574,0.258 -0.574,0.664 0,0.371 0.277,0.668 0.648,0.668 0.371,0 0.664,-0.258 0.664,-0.684 0,-0.89 -0.98,-1.43 -2.234,-1.43 -1.813,0 -3.164,1.52 -3.164,3.301 0,1.813 1.48,3.203 3.144,3.203 1.961,0 2.422,-1.703 2.422,-1.832 z m 7.262,-1.336 c 0,-1.851 -1.461,-3.336 -3.199,-3.336 -1.813,0 -3.235,1.52 -3.235,3.336 0,1.778 1.477,3.168 3.215,3.168 1.793,0 3.219,-1.425 3.219,-3.168 z m -1.223,-0.128 c 0,0.519 0,1.351 -0.351,1.98 -0.387,0.648 -1.035,0.93 -1.625,0.93 -0.723,0 -1.313,-0.356 -1.629,-0.91 -0.367,-0.594 -0.387,-1.352 -0.387,-2 0,-0.52 0,-1.336 0.352,-1.911 0.425,-0.722 1.129,-0.945 1.644,-0.945 0.797,0 1.387,0.465 1.664,0.945 0.332,0.594 0.332,1.317 0.332,1.911 z m 9.379,3.148 v -0.445 c -0.722,0 -1.074,0 -1.074,-0.426 v -2.723 c 0,-1.187 0,-1.594 -0.406,-2.094 -0.313,-0.39 -0.868,-0.574 -1.571,-0.574 -1.312,0 -1.921,0.981 -2.125,1.371 v -1.371 l -2.054,0.149 V 63 c 0.965,0 1.093,0.094 1.093,0.797 v 3.777 c 0,0.649 -0.168,0.649 -1.093,0.649 v 0.445 c 0.668,-0.035 0.925,-0.035 1.609,-0.035 0.684,0 0.871,0 1.609,0.035 v -0.445 c -0.925,0 -1.089,0 -1.089,-0.649 V 65 c 0,-1.5 1.07,-2.242 1.957,-2.242 0.832,0 1.019,0.687 1.019,1.539 v 3.277 c 0,0.649 -0.148,0.649 -1.094,0.649 v 0.445 c 0.668,-0.035 0.946,-0.035 1.61,-0.035 0.683,0 0.871,0 1.609,0.035 z m 7.981,0 v -0.445 c -0.961,0 -1.09,-0.09 -1.09,-0.797 v -8.594 l -2.09,0.164 v 0.426 c 0.961,0 1.09,0.113 1.09,0.797 v 3.019 c -0.074,-0.09 -0.699,-0.832 -1.809,-0.832 -1.738,0 -3.254,1.391 -3.254,3.223 0,1.762 1.422,3.187 3.106,3.187 1.015,0 1.664,-0.593 1.922,-0.906 v 0.906 z m -2.125,-1.703 c 0,0.258 0,0.297 -0.223,0.594 -0.441,0.648 -1.09,0.906 -1.645,0.906 -0.609,0 -1.183,-0.332 -1.554,-0.926 -0.367,-0.613 -0.387,-1.445 -0.387,-1.91 0,-0.664 0.074,-1.406 0.445,-1.981 0.313,-0.445 0.887,-0.89 1.645,-0.89 0.59,0 1.164,0.297 1.535,0.836 0.184,0.222 0.184,0.238 0.184,0.515 z m 10.296,1.703 v -0.445 c -0.96,0 -1.07,-0.09 -1.07,-0.797 v -5.02 l -2.144,0.149 V 63 c 0.961,0 1.09,0.094 1.09,0.797 v 2.5 c 0,1.262 -0.704,2.168 -1.719,2.168 -1.184,0 -1.258,-0.61 -1.258,-1.371 v -4.688 l -2.125,0.149 V 63 c 1.09,0 1.09,0.035 1.09,1.297 v 2.129 c 0,0.926 0,1.519 0.644,2.019 0.41,0.282 0.981,0.371 1.555,0.371 0.738,0 1.422,-0.312 1.832,-1.168 h 0.016 v 1.168 z m 6.391,-1.684 c 0,-0.168 -0.164,-0.168 -0.203,-0.168 -0.148,0 -0.148,0.02 -0.238,0.258 -0.332,0.985 -1.11,1.356 -1.852,1.356 -0.887,0 -2.051,-0.742 -2.051,-2.836 0,-2.207 1.129,-2.871 1.981,-2.871 0.183,0 0.941,0.015 1.457,0.371 -0.293,0.054 -0.57,0.258 -0.57,0.664 0,0.371 0.277,0.668 0.644,0.668 0.371,0 0.668,-0.258 0.668,-0.684 0,-0.89 -0.98,-1.43 -2.238,-1.43 -1.813,0 -3.16,1.52 -3.16,3.301 0,1.813 1.476,3.203 3.14,3.203 1.961,0 2.422,-1.703 2.422,-1.832 z m 5.266,-0.074 v -0.797 h -0.407 v 0.758 c 0,1.039 -0.445,1.559 -0.945,1.559 -0.941,0 -0.941,-1.242 -0.941,-1.504 V 63 h 2.051 v -0.445 h -2.051 v -2.594 h -0.406 c 0,1.184 -0.5,2.648 -1.868,2.687 V 63 h 1.219 v 3.91 c 0,1.594 1.149,1.906 1.906,1.906 0.942,0 1.442,-0.906 1.442,-1.906 z m 4.398,1.758 v -0.445 c -0.922,0 -0.98,-0.075 -0.98,-0.61 v -5.207 l -2.032,0.149 V 63 c 0.907,0 1.016,0.094 1.016,0.777 v 3.797 c 0,0.649 -0.148,0.649 -1.07,0.649 v 0.445 c 0.629,-0.035 0.922,-0.035 1.551,-0.035 0.222,0 0.812,0 1.515,0.035 z m -0.793,-8.539 c 0,-0.43 -0.351,-0.781 -0.777,-0.781 -0.426,0 -0.758,0.351 -0.758,0.781 0,0.426 0.332,0.758 0.758,0.758 0.426,0 0.777,-0.332 0.777,-0.758 z m 8.098,5.519 c 0,-1.851 -1.461,-3.336 -3.199,-3.336 -1.813,0 -3.235,1.52 -3.235,3.336 0,1.778 1.477,3.168 3.215,3.168 1.793,0 3.219,-1.425 3.219,-3.168 z m -1.223,-0.128 c 0,0.519 0,1.351 -0.351,1.98 -0.387,0.648 -1.036,0.93 -1.625,0.93 -0.723,0 -1.313,-0.356 -1.629,-0.91 -0.367,-0.594 -0.387,-1.352 -0.387,-2 0,-0.52 0,-1.336 0.352,-1.911 0.425,-0.722 1.129,-0.945 1.644,-0.945 0.797,0 1.387,0.465 1.664,0.945 0.332,0.594 0.332,1.317 0.332,1.911 z m 9.379,3.148 v -0.445 c -0.723,0 -1.074,0 -1.074,-0.426 v -2.723 c 0,-1.187 0,-1.594 -0.406,-2.094 -0.313,-0.39 -0.868,-0.574 -1.571,-0.574 -1.312,0 -1.922,0.981 -2.125,1.371 v -1.371 l -2.05,0.149 V 63 c 0.96,0 1.089,0.094 1.089,0.797 v 3.777 c 0,0.649 -0.168,0.649 -1.089,0.649 v 0.445 c 0.664,-0.035 0.921,-0.035 1.605,-0.035 0.684,0 0.871,0 1.609,0.035 v -0.445 c -0.925,0 -1.089,0 -1.089,-0.649 V 65 c 0,-1.5 1.07,-2.242 1.957,-2.242 0.832,0 1.019,0.687 1.019,1.539 v 3.277 c 0,0.649 -0.148,0.649 -1.094,0.649 v 0.445 c 0.668,-0.035 0.946,-0.035 1.61,-0.035 0.683,0 0.871,0 1.609,0.035 z m 12.777,-3.055 c 0,-1.781 -1.402,-3.207 -3.085,-3.207 -0.981,0 -1.625,0.5 -1.977,0.871 v -4.445 l -2.09,0.164 v 0.426 c 0.961,0 1.09,0.113 1.09,0.797 v 8.449 h 0.387 l 0.539,-0.871 c 0.426,0.633 1.144,1.019 1.902,1.019 1.684,0 3.234,-1.351 3.234,-3.203 z m -1.218,-0.019 c 0,0.668 -0.075,1.406 -0.446,1.98 -0.312,0.465 -0.886,0.891 -1.644,0.891 -0.629,0 -1.164,-0.332 -1.516,-0.852 -0.203,-0.297 -0.203,-0.316 -0.203,-0.593 v -2.872 c 0,-0.277 0,-0.277 0.168,-0.519 0.481,-0.649 1.164,-0.871 1.699,-0.871 0.61,0 1.184,0.336 1.555,0.926 0.367,0.613 0.387,1.464 0.387,1.91 z m 9.445,3.074 v -0.445 c -0.961,0 -1.07,-0.09 -1.07,-0.797 v -5.02 l -2.145,0.149 V 63 c 0.961,0 1.09,0.094 1.09,0.797 v 2.5 c 0,1.262 -0.703,2.168 -1.719,2.168 -1.183,0 -1.258,-0.61 -1.258,-1.371 v -4.688 l -2.125,0.149 V 63 c 1.09,0 1.09,0.035 1.09,1.297 v 2.129 c 0,0.926 0,1.519 0.649,2.019 0.406,0.282 0.98,0.371 1.551,0.371 0.742,0 1.425,-0.312 1.832,-1.168 h 0.019 v 1.168 z m 4.047,0 v -0.445 c -0.945,0 -1.094,0 -1.094,-0.649 v -8.742 l -2.086,0.164 v 0.426 c 0.961,0 1.071,0.113 1.071,0.797 v 7.355 c 0,0.649 -0.149,0.649 -1.071,0.649 v 0.445 c 0.645,-0.035 0.922,-0.035 1.571,-0.035 0.664,0 0.906,0 1.609,0.035 z m 7.758,0 v -0.445 c -0.461,0 -0.813,0 -1.313,-0.684 l -2.015,-2.742 c 1.386,-1.203 2.035,-1.762 2.996,-1.797 v -0.445 c -0.5,0.054 -0.52,0.054 -1.035,0.054 l -1.555,-0.054 V 63 c 0.203,0.02 0.371,0.109 0.371,0.332 0,0.277 -0.223,0.465 -0.352,0.574 l -1.996,1.688 v -6.762 l -2.09,0.164 v 0.426 c 0.961,0 1.09,0.113 1.09,0.797 v 7.355 c 0,0.649 -0.164,0.649 -1.09,0.649 v 0.445 l 1.575,-0.035 1.57,0.035 v -0.445 c -0.945,0 -1.09,0 -1.09,-0.649 v -1.426 l 0.902,-0.757 1.372,1.851 c 0.218,0.317 0.332,0.481 0.332,0.668 0,0.149 -0.039,0.313 -0.481,0.313 v 0.445 l 1.535,-0.035 c 0.407,0 0.867,0 1.274,0.035 z"
       style="fill:#23232c;fill-opacity:1;fill-rule:nonzero;stroke:none"
       transform="scale(1.3333333)" />
    <path
       id="path7"
       d="m 96.84,179.086 v -0.395 c -0.375,0.047 -0.969,0.047 -0.969,0.047 -0.359,0 -0.734,-0.015 -1.098,-0.047 v 0.395 c 0.364,0.031 0.575,0.211 0.575,0.543 0,0.129 0,0.144 -0.067,0.277 l -1.293,3.172 -1.426,-3.433 c -0.05,-0.067 -0.066,-0.149 -0.066,-0.231 0,-0.328 0.442,-0.328 0.688,-0.328 v -0.395 c -0.539,0.032 -0.836,0.047 -1.379,0.047 -0.442,0 -0.801,0 -1.262,-0.047 v 0.395 c 0.59,0 0.836,0 1.019,0.461 l 1.836,4.469 c 0.082,0.195 0.18,0.23 0.293,0.23 0.098,0 0.215,-0.016 0.297,-0.23 l 1.703,-4.125 c 0.262,-0.641 0.707,-0.789 1.149,-0.805 z m 5.777,3.91 v -0.707 h -0.347 v 0.691 c 0,0.149 0,0.774 -0.458,0.774 -0.441,0 -0.441,-0.609 -0.441,-0.809 v -2.199 c 0,-0.723 0,-1.152 -0.574,-1.66 -0.461,-0.41 -1.067,-0.609 -1.692,-0.609 -1.046,0 -1.933,0.527 -1.933,1.332 0,0.394 0.262,0.609 0.59,0.609 0.343,0 0.574,-0.25 0.574,-0.578 0,-0.543 -0.559,-0.606 -0.559,-0.606 0.348,-0.332 0.938,-0.445 1.297,-0.445 0.641,0 1.36,0.477 1.36,1.594 v 0.41 c -0.672,0.035 -1.622,0.082 -2.457,0.492 -0.903,0.445 -1.18,1.086 -1.18,1.598 0,1.035 1.211,1.363 2.062,1.363 1.036,0 1.512,-0.691 1.692,-1.035 0.066,0.523 0.426,0.984 0.965,0.984 0.312,0 1.101,-0.195 1.101,-1.199 z m -2.183,-0.656 c 0,1.215 -0.934,1.594 -1.493,1.594 -0.589,0 -1.144,-0.43 -1.144,-1.051 0,-0.824 0.719,-1.711 2.637,-1.793 z m 5.679,1.773 v -0.394 c -0.836,0 -0.968,0 -0.968,-0.574 v -7.758 l -1.852,0.148 v 0.379 c 0.852,0 0.949,0.098 0.949,0.707 v 6.524 c 0,0.574 -0.129,0.574 -0.949,0.574 v 0.394 c 0.574,-0.031 0.82,-0.031 1.395,-0.031 0.589,0 0.8,0 1.425,0.031 z m 5.668,-1.496 c 0,-0.082 -0.066,-0.164 -0.179,-0.164 -0.133,0 -0.164,0.082 -0.18,0.133 -0.426,1.281 -1.543,1.312 -1.723,1.312 -0.605,0 -1.113,-0.343 -1.41,-0.769 -0.41,-0.609 -0.426,-1.367 -0.426,-1.891 h 3.575 c 0.277,0 0.343,0 0.343,-0.261 0,-1.301 -0.703,-2.5 -2.312,-2.5 -1.508,0 -2.688,1.316 -2.688,2.875 0,1.644 1.328,2.894 2.852,2.894 1.527,0 2.148,-1.332 2.148,-1.629 z m -0.851,-1.691 h -3.051 c 0.113,-1.922 1.23,-2.137 1.59,-2.137 0.687,0 1.445,0.543 1.461,2.137 z m 8.078,3.187 v -0.394 c -0.641,0 -0.949,0 -0.949,-0.379 v -2.414 c 0,-1.051 0,-1.414 -0.364,-1.856 -0.277,-0.347 -0.769,-0.511 -1.394,-0.511 -1.164,0 -1.703,0.871 -1.883,1.214 v -1.214 l -1.82,0.132 v 0.395 c 0.851,0 0.964,0.082 0.964,0.707 v 3.352 c 0,0.574 -0.144,0.574 -0.964,0.574 v 0.394 c 0.59,-0.031 0.82,-0.031 1.425,-0.031 0.606,0 0.77,0 1.426,0.031 v -0.394 c -0.82,0 -0.965,0 -0.965,-0.574 v -2.286 c 0,-1.332 0.95,-1.988 1.735,-1.988 0.738,0 0.902,0.609 0.902,1.363 v 2.911 c 0,0.574 -0.129,0.574 -0.965,0.574 v 0.394 c 0.59,-0.031 0.836,-0.031 1.426,-0.031 0.606,0 0.77,0 1.426,0.031 z m 5.668,-1.496 c 0,-0.148 -0.145,-0.148 -0.18,-0.148 -0.129,0 -0.129,0.019 -0.211,0.23 -0.297,0.871 -0.984,1.199 -1.64,1.199 -0.79,0 -1.821,-0.656 -1.821,-2.511 0,-1.957 1,-2.547 1.754,-2.547 0.164,0 0.836,0.015 1.297,0.328 -0.266,0.047 -0.508,0.23 -0.508,0.59 0,0.328 0.242,0.594 0.571,0.594 0.328,0 0.593,-0.231 0.593,-0.61 0,-0.789 -0.871,-1.265 -1.984,-1.265 -1.609,0 -2.805,1.347 -2.805,2.925 0,1.61 1.313,2.844 2.785,2.844 1.739,0 2.149,-1.512 2.149,-1.629 z m 5.734,0 c 0,-0.082 -0.062,-0.164 -0.18,-0.164 -0.128,0 -0.164,0.082 -0.179,0.133 -0.426,1.281 -1.543,1.312 -1.723,1.312 -0.605,0 -1.113,-0.343 -1.41,-0.769 -0.41,-0.609 -0.426,-1.367 -0.426,-1.891 h 3.574 c 0.282,0 0.344,0 0.344,-0.261 0,-1.301 -0.703,-2.5 -2.308,-2.5 -1.512,0 -2.692,1.316 -2.692,2.875 0,1.644 1.328,2.894 2.852,2.894 1.527,0 2.148,-1.332 2.148,-1.629 z m -0.851,-1.691 h -3.051 c 0.117,-1.922 1.23,-2.137 1.594,-2.137 0.687,0 1.441,0.543 1.457,2.137 z m 12.25,0.476 c 0,-1.578 -1.247,-2.843 -2.739,-2.843 -0.871,0 -1.445,0.445 -1.758,0.773 v -3.945 l -1.851,0.148 v 0.379 c 0.851,0 0.969,0.098 0.969,0.707 v 7.492 h 0.343 l 0.477,-0.773 c 0.375,0.558 1.016,0.906 1.688,0.906 1.492,0 2.871,-1.199 2.871,-2.844 z m -1.082,-0.015 c 0,0.59 -0.067,1.246 -0.395,1.758 -0.281,0.41 -0.789,0.789 -1.461,0.789 -0.555,0 -1.031,-0.297 -1.344,-0.758 -0.179,-0.262 -0.179,-0.278 -0.179,-0.524 v -2.547 c 0,-0.25 0,-0.25 0.148,-0.46 0.426,-0.575 1.031,-0.774 1.508,-0.774 0.539,0 1.047,0.297 1.375,0.82 0.328,0.543 0.348,1.301 0.348,1.696 z m 8.375,2.726 v -0.394 c -0.852,0 -0.95,-0.082 -0.95,-0.707 v -4.453 l -1.902,0.132 v 0.395 c 0.852,0 0.969,0.082 0.969,0.707 v 2.219 c 0,1.117 -0.625,1.922 -1.528,1.922 -1.046,0 -1.113,-0.543 -1.113,-1.219 v -4.156 l -1.887,0.132 v 0.395 c 0.969,0 0.969,0.031 0.969,1.148 v 1.891 c 0,0.82 0,1.348 0.574,1.793 0.36,0.246 0.868,0.328 1.375,0.328 0.657,0 1.266,-0.281 1.625,-1.035 h 0.016 v 1.035 z m 3.593,0 v -0.394 c -0.836,0 -0.968,0 -0.968,-0.574 v -7.758 l -1.852,0.148 v 0.379 c 0.852,0 0.949,0.098 0.949,0.707 v 6.524 c 0,0.574 -0.129,0.574 -0.949,0.574 v 0.394 c 0.574,-0.031 0.82,-0.031 1.395,-0.031 0.589,0 0.8,0 1.425,0.031 z m 6.883,0 v -0.394 c -0.41,0 -0.723,0 -1.164,-0.61 l -1.789,-2.429 c 1.23,-1.071 1.805,-1.563 2.656,-1.594 v -0.395 c -0.441,0.047 -0.461,0.047 -0.918,0.047 l -1.379,-0.047 v 0.395 c 0.184,0.016 0.328,0.098 0.328,0.293 0,0.25 -0.195,0.414 -0.308,0.512 l -1.774,1.496 v -6 l -1.851,0.148 v 0.379 c 0.851,0 0.969,0.098 0.969,0.707 v 6.524 c 0,0.574 -0.149,0.574 -0.969,0.574 v 0.394 l 1.394,-0.031 1.395,0.031 v -0.394 c -0.84,0 -0.969,0 -0.969,-0.574 v -1.266 l 0.805,-0.676 1.211,1.645 c 0.199,0.281 0.297,0.429 0.297,0.593 0,0.129 -0.035,0.278 -0.426,0.278 v 0.394 l 1.359,-0.031 c 0.36,0 0.77,0 1.133,0.031 z"
       style="fill:#23232c;fill-opacity:1;fill-rule:nonzero;stroke:none"
       transform="scale(1.3333333)" />
    <path
       id="path8"
       d="M 75.645,-160.699 V -82.68"
       style="fill:none;stroke:#000000;stroke-width:0.799474;stroke-linecap:butt;stroke-linejoin:miter;stroke-miterlimit:10;stroke-dasharray:none;stroke-opacity:1"
       transform="scale(1.3302987,-1.3333333)" />
    <path
       id="path9"
       d="m 158.539,78.765 c 0.469,-1.871 1.508,-2.756 2.559,-3.12 -1.051,-0.364 -2.09,-1.249 -2.559,-3.121"
       style="fill:none;stroke:#000000;stroke-width:0.799474;stroke-linecap:round;stroke-linejoin:round;stroke-miterlimit:10;stroke-dasharray:none;stroke-opacity:1"
       transform="matrix(0,1.3333333,1.3302987,0,0,0)" />
    <path
       id="path10"
       d="m -84.84,-72.524 c 0.469,-1.872 1.508,-2.757 2.559,-3.121 -1.051,-0.364 -2.09,-1.249 -2.559,-3.12"
       style="fill:none;stroke:#000000;stroke-width:0.799474;stroke-linecap:round;stroke-linejoin:round;stroke-miterlimit:10;stroke-dasharray:none;stroke-opacity:1"
       transform="matrix(0,-1.3333333,-1.3302987,0,0,0)" />
    <path
       id="path11"
       d="M 65.559,94.406 H 85.383 V 106.32 H 65.559 Z"
       style="fill:#ffffff;fill-opacity:1;fill-rule:nonzero;stroke:none"
       transform="scale(1.3333333)" />
    <path
       id="path12"
       d="m 72.57,98.23 c 0,-0.16 -0.129,-0.488 -0.558,-0.488 -0.157,0 -0.629,0.028 -1.071,0.446 -0.242,-0.172 -0.629,-0.344 -1.086,-0.344 -0.957,0 -1.66,0.672 -1.66,1.433 0,0.457 0.246,0.801 0.446,0.989 -0.2,0.242 -0.286,0.558 -0.286,0.8 0,0.387 0.2,0.688 0.415,0.86 -0.516,0.144 -0.918,0.515 -0.918,0.961 0,0.699 1.003,1.246 2.289,1.246 1.214,0 2.285,-0.488 2.285,-1.262 0,-0.531 -0.313,-0.93 -0.629,-1.101 -0.57,-0.301 -1.055,-0.301 -2,-0.301 h -0.543 c -0.301,-0.031 -0.543,-0.289 -0.543,-0.645 0,-0.23 0.059,-0.316 0.113,-0.402 0.414,0.242 0.789,0.285 1.031,0.285 0.957,0 1.672,-0.672 1.672,-1.43 0,-0.375 -0.172,-0.687 -0.402,-0.933 0.129,-0.114 0.457,-0.328 0.93,-0.328 -0.043,0.027 -0.086,0.07 -0.086,0.226 0,0.172 0.129,0.305 0.301,0.305 0.144,0 0.3,-0.086 0.3,-0.317 z m -1.816,1.047 c 0,0.356 -0.043,0.614 -0.199,0.817 -0.215,0.269 -0.516,0.328 -0.7,0.328 -0.902,0 -0.902,-0.93 -0.902,-1.145 0,-0.359 0.059,-0.617 0.199,-0.804 0.16,-0.231 0.43,-0.344 0.703,-0.344 0.899,0 0.899,0.933 0.899,1.148 z m 1.101,3.61 c 0,0.515 -0.742,0.972 -1.714,0.972 -0.973,0 -1.7,-0.457 -1.7,-0.972 0,-0.215 0.141,-0.789 0.942,-0.789 h 0.929 c 0.27,0 1.543,0 1.543,0.789 z m 5.875,-1.621 v -0.543 h -0.316 v 0.543 c 0,0.402 -0.141,0.558 -0.34,0.558 -0.359,0 -0.359,-0.457 -0.359,-0.558 v -2.032 c 0,-0.949 -0.93,-1.433 -1.817,-1.433 -0.8,0 -1.511,0.301 -1.511,0.945 0,0.301 0.199,0.473 0.457,0.473 0.269,0 0.441,-0.199 0.441,-0.457 0,-0.231 -0.144,-0.403 -0.355,-0.446 0.355,-0.246 0.882,-0.246 0.957,-0.246 0.543,0 1.086,0.375 1.086,1.176 v 0.301 c -0.559,0.031 -1.215,0.058 -1.887,0.344 -0.859,0.375 -1.031,0.933 -1.031,1.261 0,0.832 0.988,1.09 1.66,1.09 0.699,0 1.144,-0.402 1.355,-0.789 0.043,0.371 0.301,0.731 0.731,0.731 0.101,0 0.929,-0.028 0.929,-0.918 z m -1.757,-0.5 c 0,0.945 -0.801,1.203 -1.188,1.203 -0.5,0 -0.93,-0.344 -0.93,-0.817 0,-0.644 0.602,-1.304 2.118,-1.347 z m 7.304,-0.731 c 0,-1.219 -0.984,-2.191 -2.156,-2.191 -0.387,0 -0.945,0.097 -1.445,0.601 v -0.601 l -1.442,0.113 v 0.316 c 0.684,0 0.727,0.059 0.727,0.473 v 4.527 c 0,0.43 -0.113,0.43 -0.727,0.43 v 0.328 c 0.414,-0.027 0.844,-0.027 1.102,-0.027 0.285,0 0.699,0 1.113,0.027 v -0.328 c -0.629,0 -0.742,0 -0.742,-0.43 v -1.605 c 0.457,0.488 0.957,0.574 1.27,0.574 1.23,0 2.3,-0.961 2.3,-2.207 z m -0.871,0 c 0,1.117 -0.699,1.934 -1.484,1.934 -0.344,0 -0.785,-0.145 -1.102,-0.629 -0.113,-0.172 -0.113,-0.188 -0.113,-0.375 v -2.063 c 0.227,-0.398 0.715,-0.757 1.328,-0.757 0.742,0 1.371,0.832 1.371,1.89 z"
       style="fill:#000000;fill-opacity:1;fill-rule:nonzero;stroke:none"
       transform="scale(1.3333333)" />
    <path
       id="path13"
       d="m 94.128,-164.34 c 68.242,42.652 68.242,42.652 136.483,85.301"
       style="fill:none;stroke:#b0413e;stroke-width:1.19923;stroke-linecap:butt;stroke-linejoin:miter;stroke-miterlimit:10;stroke-dasharray:none;stroke-opacity:1"
       transform="scale(1.3302987,-1.3333333)" />
    <path
       id="path14"
       d="m 116.367,103.258 c 0,-0.113 -0.113,-0.113 -0.137,-0.113 -0.101,0 -0.101,0.011 -0.164,0.175 -0.226,0.664 -0.75,0.914 -1.25,0.914 -0.597,0 -1.386,-0.5 -1.386,-1.918 0,-1.488 0.761,-1.941 1.336,-1.941 0.125,0 0.636,0.016 0.988,0.25 -0.199,0.039 -0.387,0.176 -0.387,0.453 0,0.25 0.188,0.449 0.438,0.449 0.25,0 0.449,-0.175 0.449,-0.461 0,-0.601 -0.664,-0.964 -1.512,-0.964 -1.226,0 -2.137,1.027 -2.137,2.23 0,1.227 1,2.164 2.125,2.164 1.325,0 1.637,-1.152 1.637,-1.238 z m 5.231,1.14 v -0.3 c -0.489,0 -0.727,0 -0.727,-0.289 v -1.84 c 0,-0.805 0,-1.078 -0.273,-1.418 -0.215,-0.262 -0.59,-0.387 -1.063,-0.387 -0.637,0 -1.113,0.336 -1.402,0.863 h -0.012 v -3.281 l -1.41,0.113 v 0.289 c 0.648,0 0.738,0.075 0.738,0.536 v 4.972 c 0,0.442 -0.113,0.442 -0.738,0.442 v 0.3 c 0.449,-0.027 0.625,-0.027 1.086,-0.027 0.461,0 0.586,0 1.086,0.027 v -0.3 c -0.625,0 -0.735,0 -0.735,-0.442 v -1.738 c 0,-1.016 0.723,-1.516 1.325,-1.516 0.562,0 0.687,0.461 0.687,1.039 v 2.215 c 0,0.442 -0.101,0.442 -0.738,0.442 v 0.3 c 0.449,-0.027 0.637,-0.027 1.086,-0.027 0.465,0 0.59,0 1.09,0.027 z m 2.656,0 v -0.3 c -0.625,0 -0.66,-0.051 -0.66,-0.414 v -3.52 l -1.375,0.098 v 0.3 c 0.609,0 0.687,0.063 0.687,0.528 v 2.566 c 0,0.442 -0.101,0.442 -0.726,0.442 v 0.3 c 0.425,-0.027 0.625,-0.027 1.05,-0.027 0.149,0 0.551,0 1.024,0.027 z m -0.535,-5.777 c 0,-0.285 -0.239,-0.523 -0.528,-0.523 -0.285,0 -0.511,0.238 -0.511,0.523 0,0.289 0.226,0.516 0.511,0.516 0.289,0 0.528,-0.227 0.528,-0.516 z m 4.41,2.129 c 0,-0.297 -0.289,-0.586 -0.711,-0.586 -0.578,0 -0.977,0.398 -1.203,0.988 v -0.988 l -1.36,0.098 v 0.3 c 0.649,0 0.735,0.063 0.735,0.54 v 2.554 c 0,0.442 -0.11,0.442 -0.735,0.442 v 0.3 c 0.5,-0.027 0.625,-0.027 1.11,-0.027 l 1.226,0.027 v -0.3 h -0.199 c -0.699,0 -0.726,-0.102 -0.726,-0.453 v -1.442 c 0,-0.398 0.113,-1.801 1.199,-1.801 v 0.012 c -0.024,0.012 -0.172,0.125 -0.172,0.352 0,0.261 0.199,0.425 0.422,0.425 0.203,0 0.414,-0.152 0.414,-0.441 z m 5.031,2.797 v -0.539 h -0.265 v 0.523 c 0,0.114 0,0.59 -0.348,0.59 -0.34,0 -0.34,-0.465 -0.34,-0.613 v -1.68 c 0,-0.551 0,-0.875 -0.437,-1.266 -0.348,-0.312 -0.809,-0.46 -1.286,-0.46 -0.8,0 -1.476,0.398 -1.476,1.011 0,0.301 0.203,0.465 0.453,0.465 0.262,0 0.437,-0.187 0.437,-0.437 0,-0.414 -0.425,-0.465 -0.425,-0.465 0.261,-0.25 0.711,-0.336 0.988,-0.336 0.484,0 1.035,0.363 1.035,1.215 v 0.312 c -0.512,0.024 -1.238,0.063 -1.875,0.375 -0.687,0.34 -0.898,0.828 -0.898,1.215 0,0.789 0.925,1.039 1.574,1.039 0.785,0 1.148,-0.523 1.285,-0.789 0.051,0.402 0.328,0.754 0.738,0.754 0.239,0 0.84,-0.152 0.84,-0.914 z m -1.664,-0.504 c 0,0.93 -0.711,1.215 -1.137,1.215 -0.449,0 -0.875,-0.324 -0.875,-0.801 0,-0.625 0.551,-1.301 2.012,-1.363 z m 4.328,1.355 v -0.3 c -0.636,0 -0.738,0 -0.738,-0.442 v -5.91 l -1.41,0.113 v 0.289 c 0.648,0 0.722,0.075 0.722,0.536 v 4.972 c 0,0.442 -0.101,0.442 -0.722,0.442 v 0.3 c 0.433,-0.027 0.621,-0.027 1.058,-0.027 0.454,0 0.614,0 1.09,0.027 z m 7.602,-1.14 c 0,-0.063 -0.051,-0.125 -0.141,-0.125 -0.097,0 -0.125,0.062 -0.137,0.097 -0.324,0.977 -1.175,1.004 -1.312,1.004 -0.461,0 -0.848,-0.261 -1.074,-0.589 -0.313,-0.461 -0.324,-1.04 -0.324,-1.442 h 2.722 c 0.215,0 0.266,0 0.266,-0.199 0,-0.988 -0.539,-1.902 -1.762,-1.902 -1.152,0 -2.051,1 -2.051,2.191 0,1.254 1.012,2.203 2.176,2.203 1.16,0 1.637,-1.016 1.637,-1.238 z m -0.653,-1.289 h -2.324 c 0.09,-1.469 0.938,-1.629 1.215,-1.629 0.524,0 1.098,0.41 1.109,1.629 z m 6.098,2.429 v -0.3 c -0.652,0 -0.738,-0.063 -0.738,-0.539 v -5.813 l -1.414,0.113 v 0.289 c 0.652,0 0.738,0.075 0.738,0.536 v 2.043 c -0.051,-0.063 -0.473,-0.563 -1.223,-0.563 -1.175,0 -2.199,0.938 -2.199,2.18 0,1.187 0.961,2.152 2.098,2.152 0.687,0 1.125,-0.398 1.301,-0.613 v 0.613 z m -1.437,-1.152 c 0,0.172 0,0.199 -0.153,0.399 -0.297,0.437 -0.734,0.613 -1.109,0.613 -0.414,0 -0.801,-0.223 -1.051,-0.625 -0.25,-0.414 -0.262,-0.977 -0.262,-1.289 0,-0.453 0.047,-0.953 0.297,-1.34 0.215,-0.301 0.602,-0.602 1.114,-0.602 0.402,0 0.789,0.2 1.039,0.563 0.125,0.148 0.125,0.164 0.125,0.351 z m 6.507,-2.707 c 0,-0.187 -0.14,-0.488 -0.527,-0.488 -0.273,0 -0.699,0.113 -1.035,0.449 -0.262,-0.199 -0.625,-0.336 -1.039,-0.336 -0.899,0 -1.586,0.652 -1.586,1.402 0,0.489 0.289,0.84 0.437,0.977 -0.023,0.023 -0.289,0.363 -0.289,0.801 0,0.328 0.153,0.664 0.414,0.84 -0.488,0.152 -0.875,0.515 -0.875,0.964 0,0.676 0.95,1.227 2.176,1.227 1.172,0 2.172,-0.512 2.172,-1.25 0,-0.391 -0.176,-0.816 -0.535,-1.043 -0.527,-0.336 -1.09,-0.336 -1.988,-0.336 -0.2,0 -0.5,0 -0.575,-0.027 -0.289,-0.047 -0.464,-0.313 -0.464,-0.614 0,-0.16 0.05,-0.3 0.14,-0.425 0.235,0.152 0.524,0.3 0.973,0.3 0.902,0 1.586,-0.648 1.586,-1.414 0,-0.464 -0.262,-0.789 -0.387,-0.925 0.387,-0.34 0.84,-0.34 0.949,-0.34 -0.047,0.023 -0.125,0.074 -0.125,0.238 0,0.113 0.063,0.289 0.289,0.289 0.125,0 0.289,-0.09 0.289,-0.289 z m -1.738,1.027 c 0,0.227 0,1.153 -0.863,1.153 -0.848,0 -0.848,-0.942 -0.848,-1.153 0,-0.25 0.012,-0.578 0.172,-0.816 0.152,-0.188 0.402,-0.324 0.676,-0.324 0.863,0 0.863,0.926 0.863,1.14 z m 1.051,3.571 c 0,0.551 -0.727,0.976 -1.625,0.976 -0.938,0 -1.649,-0.453 -1.649,-0.976 0,-0.153 0.098,-0.789 0.911,-0.789 h 0.886 c 0.301,0 1.477,0.011 1.477,0.789 z m 4.918,-1.879 c 0,-0.063 -0.051,-0.125 -0.141,-0.125 -0.097,0 -0.125,0.062 -0.136,0.097 -0.325,0.977 -1.176,1.004 -1.313,1.004 -0.461,0 -0.848,-0.261 -1.074,-0.589 -0.313,-0.461 -0.324,-1.04 -0.324,-1.442 h 2.722 c 0.215,0 0.266,0 0.266,-0.199 0,-0.988 -0.539,-1.902 -1.766,-1.902 -1.148,0 -2.047,1 -2.047,2.191 0,1.254 1.012,2.203 2.172,2.203 1.164,0 1.641,-1.016 1.641,-1.238 z m -0.652,-1.289 h -2.325 c 0.09,-1.469 0.938,-1.629 1.211,-1.629 0.528,0 1.102,0.41 1.114,1.629 z m 12.171,2.429 v -0.3 c -0.488,0 -0.722,0 -0.738,-0.289 v -1.84 c 0,-0.84 0,-1.106 -0.312,-1.469 -0.2,-0.223 -0.586,-0.336 -1.024,-0.336 -0.687,0 -1.148,0.398 -1.426,0.914 -0.109,-0.578 -0.5,-0.914 -1.296,-0.914 -0.766,0 -1.227,0.5 -1.438,0.938 v -0.938 l -1.387,0.098 v 0.3 c 0.649,0 0.735,0.063 0.735,0.54 v 2.554 c 0,0.442 -0.11,0.442 -0.735,0.442 v 0.3 c 0.45,-0.027 0.625,-0.027 1.086,-0.027 0.461,0 0.586,0 1.086,0.027 v -0.3 c -0.625,0 -0.734,0 -0.734,-0.442 v -1.738 c 0,-1.039 0.746,-1.516 1.324,-1.516 0.523,0 0.699,0.375 0.699,1.039 v 2.215 c 0,0.442 -0.113,0.442 -0.738,0.442 v 0.3 c 0.449,-0.027 0.625,-0.027 1.086,-0.027 0.465,0 0.59,0 1.09,0.027 v -0.3 c -0.625,0 -0.739,0 -0.739,-0.442 v -1.738 c 0,-1.039 0.75,-1.516 1.325,-1.516 0.523,0 0.699,0.375 0.699,1.039 v 2.215 c 0,0.442 -0.113,0.442 -0.738,0.442 v 0.3 c 0.453,-0.027 0.625,-0.027 1.089,-0.027 0.461,0 0.586,0 1.086,0.027 z m 4.848,-2.043 c 0,-1.253 -0.984,-2.253 -2.16,-2.253 -1.227,0 -2.188,1.027 -2.188,2.253 0,1.204 1,2.141 2.176,2.141 1.211,0 2.172,-0.965 2.172,-2.141 z m -0.824,-0.089 c 0,0.351 0,0.918 -0.238,1.343 -0.262,0.438 -0.7,0.625 -1.098,0.625 -0.488,0 -0.887,-0.238 -1.102,-0.613 -0.25,-0.402 -0.261,-0.914 -0.261,-1.355 0,-0.348 0,-0.899 0.238,-1.289 0.289,-0.489 0.762,-0.637 1.113,-0.637 0.535,0 0.938,0.312 1.125,0.637 0.223,0.402 0.223,0.89 0.223,1.289 z m 6.555,2.132 v -0.3 c -0.649,0 -0.739,-0.063 -0.739,-0.539 v -5.813 l -1.41,0.113 v 0.289 c 0.649,0 0.738,0.075 0.738,0.536 v 2.043 c -0.05,-0.063 -0.476,-0.563 -1.226,-0.563 -1.176,0 -2.199,0.938 -2.199,2.18 0,1.187 0.961,2.152 2.097,2.152 0.688,0 1.125,-0.398 1.301,-0.613 v 0.613 z m -1.438,-1.152 c 0,0.172 0,0.199 -0.148,0.399 -0.301,0.437 -0.739,0.613 -1.114,0.613 -0.41,0 -0.8,-0.223 -1.05,-0.625 -0.25,-0.414 -0.262,-0.977 -0.262,-1.289 0,-0.453 0.051,-0.953 0.301,-1.34 0.211,-0.301 0.601,-0.602 1.113,-0.602 0.398,0 0.785,0.2 1.035,0.563 0.125,0.148 0.125,0.164 0.125,0.351 z m 5.82,0.012 c 0,-0.063 -0.05,-0.125 -0.136,-0.125 -0.102,0 -0.125,0.062 -0.137,0.097 -0.324,0.977 -1.176,1.004 -1.313,1.004 -0.461,0 -0.851,-0.261 -1.074,-0.589 -0.312,-0.461 -0.324,-1.04 -0.324,-1.442 h 2.723 c 0.211,0 0.261,0 0.261,-0.199 0,-0.988 -0.535,-1.902 -1.761,-1.902 -1.149,0 -2.051,1 -2.051,2.191 0,1.254 1.015,2.203 2.176,2.203 1.164,0 1.636,-1.016 1.636,-1.238 z m -0.648,-1.289 h -2.324 c 0.086,-1.469 0.937,-1.629 1.211,-1.629 0.523,0 1.101,0.41 1.113,1.629 z"
       style="fill:#b0413e;fill-opacity:1;fill-rule:nonzero;stroke:none"
       transform="scale(1.3333333)" />
    <path
       id="path15"
       d="m 100.16,121.578 c 0,-3.062 -2.476,-5.547 -5.535,-5.547 -3.059,0 -5.535,2.485 -5.535,5.547 0,3.063 2.476,5.547 5.535,5.547 3.059,0 5.535,-2.484 5.535,-5.547 z"
       style="fill:#6a4c93;fill-opacity:1;fill-rule:nonzero;stroke:none"
       transform="scale(1.3333333)" />
    <path
       id="path16"
       d="m 92.332,136.223 c -0.141,-1.493 -0.742,-2.469 -0.762,-2.489 -0.265,-0.406 -0.711,-0.906 -1.508,-0.906 -1.558,0 -2.464,1.762 -2.464,2.188 0,0.105 0.105,0.14 0.175,0.14 0.125,0 0.161,-0.035 0.196,-0.14 0.375,-1.086 1.562,-1.246 1.918,-1.246 1.949,0 2.093,2.097 2.093,3.128 0,0.661 -0.039,0.766 -0.125,1.051 -0.265,0.852 -0.621,2.203 -0.621,2.543 0,0.035 0.016,0.266 0.196,0.266 0.14,0 0.246,-0.18 0.355,-0.481 0.336,-1.121 0.442,-1.918 0.512,-2.472 0.035,-0.246 0.726,-2.274 1.844,-4.391 0.144,-0.266 0.144,-0.285 0.144,-0.32 0,-0.016 0,-0.141 -0.18,-0.141 -0.05,0 -0.105,0.016 -0.14,0.055 -0.035,0.035 -0.992,1.812 -1.598,3.465 z"
       style="fill:#6a4c93;fill-opacity:1;fill-rule:nonzero;stroke:none"
       transform="scale(1.3333333)" />
    <path
       id="path17"
       d="m 97.906,134.738 c 0.071,-0.281 0.09,-0.371 1.012,-0.371 0.23,0 0.336,0 0.336,-0.23 0,-0.02 -0.016,-0.125 -0.156,-0.125 -0.215,0 -0.446,0.015 -0.676,0.015 -0.231,0 -0.496,0.02 -0.746,0.02 -0.211,0 -0.406,-0.02 -0.621,-0.02 -0.211,0 -0.442,-0.015 -0.657,-0.015 -0.05,0 -0.195,0 -0.195,0.211 0,0.144 0.125,0.144 0.285,0.144 0.16,0 0.391,0 0.586,0.071 0,0.089 0,0.14 -0.035,0.285 l -1.187,4.726 c -0.09,0.321 -0.11,0.395 -0.782,0.395 -0.215,0 -0.32,0 -0.32,0.211 0,0.144 0.105,0.144 0.285,0.144 h 4.789 c 0.231,0 0.246,-0.019 0.301,-0.179 0.09,-0.231 0.797,-2.043 0.797,-2.098 0,-0.09 -0.07,-0.141 -0.176,-0.141 -0.105,0 -0.144,0.051 -0.18,0.176 -0.406,1.016 -0.867,1.887 -2.48,1.887 h -1.117 c -0.18,0 -0.196,0 -0.305,-0.039 z"
       style="fill:#6a4c93;fill-opacity:1;fill-rule:nonzero;stroke:none"
       transform="scale(1.3333333)" />
    <path
       id="path18"
       d="m 234.566,121.578 c 0,-3.023 -2.464,-5.476 -5.507,-5.476 -3.043,0 -5.508,2.453 -5.508,5.476 0,3.024 2.465,5.477 5.508,5.477 3.043,0 5.507,-2.453 5.507,-5.477 z"
       style="fill:#6a4c93;fill-opacity:1;fill-rule:nonzero;stroke:none"
       transform="scale(1.3333333)" />
    <path
       id="path19"
       d="m 226.688,136.281 c -0.145,-1.472 -0.743,-2.441 -0.762,-2.457 -0.262,-0.402 -0.703,-0.894 -1.5,-0.894 -1.555,0 -2.453,1.738 -2.453,2.156 0,0.105 0.105,0.141 0.175,0.141 0.125,0 0.161,-0.036 0.196,-0.141 0.371,-1.07 1.554,-1.227 1.906,-1.227 1.941,0 2.082,2.071 2.082,3.09 0,0.649 -0.035,0.754 -0.121,1.035 -0.266,0.844 -0.621,2.176 -0.621,2.512 0,0.035 0.019,0.262 0.195,0.262 0.141,0 0.246,-0.176 0.356,-0.473 0.332,-1.109 0.441,-1.898 0.511,-2.441 0.036,-0.246 0.723,-2.246 1.836,-4.336 0.141,-0.262 0.141,-0.281 0.141,-0.317 0,-0.015 0,-0.14 -0.176,-0.14 -0.055,0 -0.109,0.019 -0.144,0.054 -0.036,0.036 -0.989,1.79 -1.586,3.422 z"
       style="fill:#6a4c93;fill-opacity:1;fill-rule:nonzero;stroke:none"
       transform="scale(1.3333333)" />
    <path
       id="path20"
       d="m 232.25,134.746 c 0.07,-0.281 0.07,-0.301 0.461,-0.301 h 0.883 c 0.898,0 1.551,0.231 1.551,0.934 0,0.316 -0.141,0.965 -0.758,1.316 -0.352,0.192 -0.828,0.297 -1.446,0.297 h -1.253 z m 1.836,2.422 c 0.883,-0.211 2.031,-0.809 2.031,-1.684 0,-0.757 -0.937,-1.386 -2.347,-1.386 h -2.915 c -0.156,0 -0.3,0 -0.3,0.211 0,0.136 0.144,0.136 0.3,0.136 0.161,0 0.391,0 0.567,0.071 0,0.089 0,0.14 -0.035,0.281 l -1.164,4.672 c -0.09,0.316 -0.11,0.383 -0.778,0.383 -0.195,0 -0.23,0 -0.265,0.019 -0.035,0.035 -0.071,0.156 -0.071,0.211 0,0.035 0.016,0.121 0.161,0.121 0.261,0 0.918,-0.035 1.179,-0.035 0.547,0 -0.035,0 0.637,0 0.195,0 0.406,0.035 0.602,0.035 0.05,0 0.105,0 0.14,-0.07 0.016,-0.016 0.051,-0.121 0.051,-0.156 -0.016,-0.125 -0.106,-0.125 -0.297,-0.125 -0.125,0 -0.25,-0.016 -0.355,-0.016 -0.157,-0.016 -0.231,-0.016 -0.231,-0.121 0,-0.035 0.02,-0.07 0.055,-0.16 l 0.566,-2.266 h 1.289 c 0.793,0 1.18,0.371 1.18,0.793 0,0.106 -0.07,0.418 -0.121,0.613 -0.106,0.422 -0.141,0.543 -0.141,0.703 0,0.664 0.617,1 1.395,1 0.843,0 1.25,-0.859 1.25,-1.054 0,-0.071 -0.051,-0.141 -0.176,-0.141 -0.121,0 -0.141,0.07 -0.156,0.141 -0.215,0.597 -0.657,0.754 -0.867,0.754 -0.247,0 -0.442,-0.086 -0.442,-0.614 0,-0.211 0.055,-0.703 0.09,-0.929 0,-0.086 0.035,-0.282 0.035,-0.352 0,-0.598 -0.476,-0.914 -0.867,-1.035 z"
       style="fill:#6a4c93;fill-opacity:1;fill-rule:nonzero;stroke:none"
       transform="scale(1.3333333)" />
    <g
       id="g30"
       transform="translate(91.169336,-16)">
      <path
         id="path21"
         d="m 20.66,214.676 v -0.258 h -0.176 c -0.621,0 -0.632,-0.094 -0.632,-0.391 v -4.16 c 0,-0.305 0.011,-0.387 0.632,-0.387 h 0.176 v -0.257 h -1.351 c -0.223,0 -0.235,0.023 -0.293,0.164 l -1.852,4.523 -1.84,-4.512 c -0.07,-0.152 -0.07,-0.175 -0.293,-0.175 H 13.68 v 0.257 h 0.175 c 0.622,0 0.633,0.082 0.633,0.387 v 3.949 c 0,0.211 0,0.602 -0.808,0.602 v 0.258 c 0.363,-0.024 0.738,-0.024 0.953,-0.024 0.199,0 0.574,0 0.937,0.024 v -0.258 c -0.808,0 -0.808,-0.391 -0.808,-0.602 v -4.242 l 0.011,-0.012 2.004,4.926 c 0.047,0.106 0.082,0.188 0.188,0.188 0.105,0 0.152,-0.094 0.187,-0.188 l 2.039,-4.984 v 4.523 c 0,0.297 -0.011,0.391 -0.632,0.391 h -0.164 v 0.258 l 1.128,-0.024 z m 4.5,-0.719 v -0.445 h -0.258 v 0.445 c 0,0.332 -0.117,0.461 -0.281,0.461 -0.293,0 -0.293,-0.379 -0.293,-0.461 v -1.668 c 0,-0.777 -0.762,-1.176 -1.492,-1.176 -0.656,0 -1.242,0.246 -1.242,0.778 0,0.246 0.164,0.386 0.375,0.386 0.222,0 0.363,-0.164 0.363,-0.375 0,-0.187 -0.117,-0.332 -0.293,-0.367 0.293,-0.199 0.727,-0.199 0.785,-0.199 0.449,0 0.895,0.309 0.895,0.965 v 0.246 c -0.457,0.023 -1,0.047 -1.551,0.281 -0.703,0.309 -0.844,0.766 -0.844,1.035 0,0.684 0.809,0.895 1.36,0.895 0.578,0 0.941,-0.328 1.117,-0.649 0.035,0.309 0.246,0.602 0.597,0.602 0.082,0 0.762,-0.023 0.762,-0.754 z m -1.441,-0.41 c 0,0.777 -0.657,0.988 -0.977,0.988 -0.41,0 -0.762,-0.281 -0.762,-0.672 0,-0.527 0.493,-1.07 1.739,-1.105 z m 3.617,1.492 v -3.891 l -1.242,0.094 v 0.258 c 0.597,0 0.668,0.059 0.668,0.449 v 3.113 c 0,0.211 -0.035,1.024 -0.586,1.024 -0.117,0 -0.293,-0.035 -0.399,-0.07 0.047,-0.024 0.211,-0.129 0.211,-0.352 0,-0.211 -0.14,-0.379 -0.375,-0.379 -0.199,0 -0.367,0.145 -0.367,0.391 0,0.41 0.449,0.633 0.942,0.633 0.632,0 1.148,-0.516 1.148,-1.27 z m 0,-5.172 c 0,-0.269 -0.199,-0.445 -0.434,-0.445 -0.234,0 -0.433,0.176 -0.433,0.445 0,0.223 0.176,0.434 0.433,0.434 0.246,0 0.434,-0.211 0.434,-0.434 z m 4.773,3.106 c 0,-1 -0.82,-1.86 -1.875,-1.86 -1.058,0 -1.879,0.86 -1.879,1.86 0,0.996 0.856,1.785 1.879,1.785 1.032,0 1.875,-0.789 1.875,-1.785 z m -0.714,-0.071 c 0,0.364 -0.012,0.809 -0.235,1.137 -0.211,0.32 -0.574,0.473 -0.926,0.473 -0.437,0 -0.765,-0.211 -0.941,-0.496 -0.199,-0.328 -0.223,-0.715 -0.223,-1.114 0,-0.308 0,-0.789 0.246,-1.129 0.211,-0.285 0.539,-0.437 0.918,-0.437 0.422,0 0.762,0.199 0.938,0.484 0.223,0.328 0.223,0.762 0.223,1.082 z m 4.023,-1.246 c 0,-0.285 -0.258,-0.508 -0.609,-0.508 -0.516,0 -0.868,0.387 -1.032,0.848 h -0.011 v -0.848 l -1.125,0.094 v 0.258 c 0.539,0 0.597,0.059 0.597,0.449 v 2.102 c 0,0.367 -0.093,0.367 -0.597,0.367 v 0.258 c 0.304,-0.024 0.75,-0.024 0.937,-0.024 0.469,0 0.492,0 1.008,0.024 v -0.258 h -0.164 c -0.586,0 -0.598,-0.094 -0.598,-0.379 v -1.187 c 0,-0.598 0.246,-1.457 1.008,-1.481 -0.047,0.035 -0.117,0.094 -0.117,0.285 0,0.246 0.187,0.364 0.351,0.364 0.188,0 0.352,-0.129 0.352,-0.364 z m 4.348,2.301 v -0.445 h -0.258 v 0.445 c 0,0.332 -0.117,0.461 -0.281,0.461 -0.293,0 -0.293,-0.379 -0.293,-0.461 v -1.668 c 0,-0.777 -0.766,-1.176 -1.493,-1.176 -0.656,0 -1.242,0.246 -1.242,0.778 0,0.246 0.164,0.386 0.375,0.386 0.223,0 0.364,-0.164 0.364,-0.375 0,-0.187 -0.118,-0.332 -0.293,-0.367 0.293,-0.199 0.726,-0.199 0.785,-0.199 0.445,0 0.89,0.309 0.89,0.965 v 0.246 c -0.457,0.023 -0.996,0.047 -1.547,0.281 -0.703,0.309 -0.843,0.766 -0.843,1.035 0,0.684 0.808,0.895 1.359,0.895 0.574,0 0.938,-0.328 1.113,-0.649 0.036,0.309 0.25,0.602 0.602,0.602 0.082,0 0.762,-0.023 0.762,-0.754 z m -1.446,-0.41 c 0,0.777 -0.656,0.988 -0.972,0.988 -0.41,0 -0.762,-0.281 -0.762,-0.672 0,-0.527 0.492,-1.07 1.734,-1.105 z m 6.055,1.129 v -0.258 c -0.504,0 -0.609,0 -0.609,-0.367 v -1.797 c 0,-0.672 -0.293,-1.106 -1.137,-1.106 -0.785,0 -1.149,0.579 -1.242,0.766 h -0.012 v -0.766 l -1.148,0.094 v 0.258 c 0.539,0 0.609,0.059 0.609,0.449 v 2.102 c 0,0.367 -0.106,0.367 -0.609,0.367 v 0.258 c 0.339,-0.024 0.691,-0.024 0.902,-0.024 0.234,0 0.574,0 0.914,0.024 v -0.258 c -0.516,0 -0.609,0 -0.609,-0.367 v -1.446 c 0,-0.843 0.644,-1.234 1.125,-1.234 0.492,0 0.609,0.344 0.609,0.848 v 1.832 c 0,0.367 -0.094,0.367 -0.609,0.367 v 0.258 c 0.339,-0.024 0.691,-0.024 0.914,-0.024 0.222,0 0.562,0 0.902,0.024 z m 4.332,-0.719 v -0.445 h -0.258 v 0.445 c 0,0.332 -0.117,0.461 -0.281,0.461 -0.293,0 -0.293,-0.379 -0.293,-0.461 v -1.668 c 0,-0.777 -0.762,-1.176 -1.488,-1.176 -0.66,0 -1.246,0.246 -1.246,0.778 0,0.246 0.164,0.386 0.375,0.386 0.222,0 0.363,-0.164 0.363,-0.375 0,-0.187 -0.117,-0.332 -0.293,-0.367 0.293,-0.199 0.73,-0.199 0.789,-0.199 0.445,0 0.891,0.309 0.891,0.965 v 0.246 c -0.457,0.023 -0.996,0.047 -1.551,0.281 -0.703,0.309 -0.844,0.766 -0.844,1.035 0,0.684 0.809,0.895 1.363,0.895 0.575,0 0.938,-0.328 1.114,-0.649 0.035,0.309 0.246,0.602 0.597,0.602 0.082,0 0.762,-0.023 0.762,-0.754 z m -1.441,-0.41 c 0,0.777 -0.657,0.988 -0.973,0.988 -0.414,0 -0.766,-0.281 -0.766,-0.672 0,-0.527 0.496,-1.07 1.739,-1.105 z m 8.148,-4.68 c 0,-0.105 -0.082,-0.187 -0.176,-0.187 -0.129,0 -0.164,0.093 -0.199,0.187 l -2.863,7.477 c -0.047,0.094 -0.047,0.14 -0.047,0.14 0,0.106 0.082,0.188 0.187,0.188 0.129,0 0.153,-0.094 0.2,-0.188 l 2.863,-7.476 c 0.035,-0.094 0.035,-0.141 0.035,-0.141 z m 7.727,4.082 c 0,-1 -0.809,-1.801 -1.77,-1.801 -0.316,0 -0.773,0.082 -1.183,0.497 v -0.497 L 59,211.242 v 0.258 c 0.566,0 0.602,0.047 0.602,0.391 v 3.714 c 0,0.352 -0.094,0.352 -0.602,0.352 v 0.27 c 0.344,-0.024 0.695,-0.024 0.906,-0.024 0.235,0 0.574,0 0.914,0.024 v -0.27 c -0.515,0 -0.609,0 -0.609,-0.352 v -1.316 c 0.375,0.399 0.785,0.469 1.043,0.469 1.008,0 1.887,-0.789 1.887,-1.809 z m -0.715,0 c 0,0.914 -0.574,1.586 -1.219,1.586 -0.281,0 -0.645,-0.117 -0.902,-0.519 -0.094,-0.141 -0.094,-0.153 -0.094,-0.305 v -1.691 c 0.187,-0.329 0.586,-0.625 1.09,-0.625 0.609,0 1.125,0.683 1.125,1.554 z m 5.105,1.008 v -0.445 h -0.258 v 0.445 c 0,0.332 -0.117,0.461 -0.281,0.461 -0.293,0 -0.293,-0.379 -0.293,-0.461 v -1.668 c 0,-0.777 -0.761,-1.176 -1.492,-1.176 -0.656,0 -1.242,0.246 -1.242,0.778 0,0.246 0.164,0.386 0.375,0.386 0.222,0 0.363,-0.164 0.363,-0.375 0,-0.187 -0.117,-0.332 -0.293,-0.367 0.293,-0.199 0.727,-0.199 0.785,-0.199 0.45,0 0.895,0.309 0.895,0.965 v 0.246 c -0.457,0.023 -1,0.047 -1.551,0.281 -0.703,0.309 -0.844,0.766 -0.844,1.035 0,0.684 0.809,0.895 1.36,0.895 0.578,0 0.941,-0.328 1.117,-0.649 0.035,0.309 0.246,0.602 0.598,0.602 0.082,0 0.761,-0.023 0.761,-0.754 z m -1.441,-0.41 c 0,0.777 -0.656,0.988 -0.977,0.988 -0.41,0 -0.761,-0.281 -0.761,-0.672 0,-0.527 0.492,-1.07 1.738,-1.105 z m 4.633,-1.891 c 0,-0.285 -0.258,-0.508 -0.61,-0.508 -0.515,0 -0.867,0.387 -1.031,0.848 H 69.07 v -0.848 l -1.125,0.094 v 0.258 c 0.539,0 0.598,0.059 0.598,0.449 v 2.102 c 0,0.367 -0.094,0.367 -0.598,0.367 v 0.258 c 0.305,-0.024 0.75,-0.024 0.938,-0.024 0.469,0 0.492,0 1.008,0.024 v -0.258 h -0.164 c -0.586,0 -0.598,-0.094 -0.598,-0.379 v -1.187 c 0,-0.598 0.246,-1.457 1.008,-1.481 -0.047,0.035 -0.117,0.094 -0.117,0.285 0,0.246 0.187,0.364 0.351,0.364 0.188,0 0.352,-0.129 0.352,-0.364 z m 4.347,2.301 v -0.445 h -0.258 v 0.445 c 0,0.332 -0.117,0.461 -0.281,0.461 -0.293,0 -0.293,-0.379 -0.293,-0.461 v -1.668 c 0,-0.777 -0.765,-1.176 -1.492,-1.176 -0.656,0 -1.242,0.246 -1.242,0.778 0,0.246 0.164,0.386 0.375,0.386 0.223,0 0.363,-0.164 0.363,-0.375 0,-0.187 -0.117,-0.332 -0.293,-0.367 0.293,-0.199 0.727,-0.199 0.785,-0.199 0.446,0 0.891,0.309 0.891,0.965 v 0.246 c -0.457,0.023 -0.996,0.047 -1.547,0.281 -0.703,0.309 -0.844,0.766 -0.844,1.035 0,0.684 0.809,0.895 1.36,0.895 0.574,0 0.937,-0.328 1.117,-0.649 0.035,0.309 0.246,0.602 0.598,0.602 0.082,0 0.761,-0.023 0.761,-0.754 z m -1.445,-0.41 c 0,0.777 -0.656,0.988 -0.973,0.988 -0.41,0 -0.761,-0.281 -0.761,-0.672 0,-0.527 0.492,-1.07 1.734,-1.105 z m 4.574,-3.926 c 0,-0.34 -0.328,-0.578 -0.75,-0.578 -0.597,0 -1.312,0.437 -1.312,1.293 v 0.894 H 75.48 v 0.258 h 0.657 v 2.563 c 0,0.367 -0.094,0.367 -0.598,0.367 v 0.258 c 0.305,-0.024 0.738,-0.024 0.938,-0.024 0.468,0 0.48,0 0.996,0.024 v -0.258 H 77.32 c -0.586,0 -0.597,-0.094 -0.597,-0.379 v -2.551 h 0.949 v -0.258 h -0.973 v -0.906 c 0,-0.691 0.387,-1.054 0.739,-1.054 0.128,0 0.199,0.035 0.234,0.046 -0.141,0.071 -0.188,0.2 -0.188,0.305 0,0.211 0.153,0.363 0.364,0.363 0.211,0 0.351,-0.152 0.351,-0.363 z m 3.113,4.09 c 0,-0.023 -0.023,-0.106 -0.128,-0.106 -0.082,0 -0.106,0.059 -0.118,0.106 -0.293,0.777 -0.972,0.801 -1.113,0.801 -0.367,0 -0.73,-0.176 -0.976,-0.543 -0.235,-0.364 -0.235,-0.879 -0.235,-1.117 h 2.348 c 0.176,0 0.222,0 0.222,-0.188 0,-0.703 -0.386,-1.551 -1.511,-1.551 -1,0 -1.774,0.825 -1.774,1.813 0,1.031 0.868,1.832 1.879,1.832 1.008,0 1.406,-0.86 1.406,-1.047 z m -0.539,-1.07 h -2.019 c 0.07,-1.118 0.75,-1.305 1.047,-1.305 0.926,0 0.961,1.129 0.972,1.305 z m 3.848,-0.985 c 0,-0.285 -0.262,-0.508 -0.613,-0.508 -0.516,0 -0.867,0.387 -1.031,0.848 h -0.012 v -0.848 l -1.125,0.094 v 0.258 c 0.539,0 0.598,0.059 0.598,0.449 v 2.102 c 0,0.367 -0.094,0.367 -0.598,0.367 v 0.258 c 0.305,-0.024 0.75,-0.024 0.937,-0.024 0.469,0 0.493,0 1.008,0.024 v -0.258 h -0.164 c -0.586,0 -0.598,-0.094 -0.598,-0.379 v -1.187 c 0,-0.598 0.247,-1.457 1.008,-1.481 -0.047,0.035 -0.117,0.094 -0.117,0.285 0,0.246 0.188,0.364 0.352,0.364 0.187,0 0.355,-0.129 0.355,-0.364 z m 7.074,3.02 v -0.258 c -0.515,0 -0.609,0 -0.609,-0.367 v -1.797 c 0,-0.649 -0.281,-1.106 -1.148,-1.106 -0.727,0 -1.102,0.508 -1.231,0.743 -0.141,-0.579 -0.598,-0.743 -1.113,-0.743 -0.778,0 -1.141,0.555 -1.246,0.766 h -0.012 v -0.766 l -1.148,0.094 v 0.258 c 0.539,0 0.609,0.059 0.609,0.449 v 2.102 c 0,0.367 -0.106,0.367 -0.609,0.367 v 0.258 c 0.339,-0.024 0.691,-0.024 0.902,-0.024 0.234,0 0.574,0 0.918,0.024 v -0.258 c -0.52,0 -0.613,0 -0.613,-0.367 v -1.446 c 0,-0.843 0.636,-1.234 1.14,-1.234 0.516,0 0.598,0.414 0.598,0.848 v 1.832 c 0,0.367 -0.094,0.367 -0.598,0.367 v 0.258 c 0.34,-0.024 0.692,-0.024 0.903,-0.024 0.234,0 0.574,0 0.914,0.024 v -0.258 c -0.516,0 -0.61,0 -0.61,-0.367 v -1.446 c 0,-0.843 0.633,-1.234 1.137,-1.234 0.516,0 0.598,0.414 0.598,0.848 v 1.832 c 0,0.367 -0.094,0.367 -0.598,0.367 v 0.258 c 0.34,-0.024 0.691,-0.024 0.902,-0.024 0.235,0 0.574,0 0.914,0.024 z m 2.301,0 v -0.258 c -0.516,0 -0.551,-0.047 -0.551,-0.356 v -2.914 l -1.16,0.094 v 0.258 c 0.504,0 0.574,0.047 0.574,0.438 v 2.113 c 0,0.367 -0.093,0.367 -0.597,0.367 v 0.258 c 0.304,-0.024 0.75,-0.024 0.867,-0.024 0.105,0 0.586,0 0.867,0.024 z m -0.457,-4.809 c 0,-0.269 -0.211,-0.445 -0.434,-0.445 -0.234,0 -0.445,0.176 -0.445,0.445 0,0.223 0.188,0.434 0.445,0.434 0.247,0 0.434,-0.211 0.434,-0.434 z m 4.719,3.106 c 0,-1 -0.82,-1.86 -1.875,-1.86 -1.055,0 -1.875,0.86 -1.875,1.86 0,0.996 0.855,1.785 1.875,1.785 1.031,0 1.875,-0.789 1.875,-1.785 z m -0.715,-0.071 c 0,0.364 -0.012,0.809 -0.234,1.137 -0.211,0.32 -0.575,0.473 -0.926,0.473 -0.434,0 -0.762,-0.211 -0.938,-0.496 -0.199,-0.328 -0.222,-0.715 -0.222,-1.114 0,-0.308 0,-0.789 0.246,-1.129 0.211,-0.285 0.539,-0.437 0.914,-0.437 0.422,0 0.762,0.199 0.937,0.484 0.223,0.328 0.223,0.762 0.223,1.082 z m 5.445,1.774 v -0.258 c -0.504,0 -0.609,0 -0.609,-0.367 v -1.797 c 0,-0.672 -0.293,-1.106 -1.137,-1.106 -0.785,0 -1.152,0.579 -1.246,0.766 h -0.012 v -0.766 l -1.148,0.094 v 0.258 c 0.539,0 0.609,0.059 0.609,0.449 v 2.102 c 0,0.367 -0.105,0.367 -0.609,0.367 v 0.258 c 0.34,-0.024 0.691,-0.024 0.902,-0.024 0.235,0 0.578,0 0.918,0.024 v -0.258 c -0.519,0 -0.613,0 -0.613,-0.367 v -1.446 c 0,-0.843 0.648,-1.234 1.129,-1.234 0.492,0 0.609,0.344 0.609,0.848 v 1.832 c 0,0.367 -0.093,0.367 -0.609,0.367 v 0.258 c 0.34,-0.024 0.691,-0.024 0.914,-0.024 0.223,0 0.562,0 0.902,0.024 z m 6.45,-1.539 h -0.247 c -0.082,0.925 -0.222,1.293 -1.207,1.293 h -0.949 l 2.309,-2.918 c 0.058,-0.071 0.07,-0.094 0.07,-0.153 0,-0.129 -0.094,-0.129 -0.223,-0.129 h -2.707 l -0.093,1.329 h 0.246 c 0.047,-0.821 0.222,-1.106 1.113,-1.106 h 0.914 l -2.309,2.93 c -0.058,0.07 -0.082,0.082 -0.082,0.152 0,0.141 0.094,0.141 0.223,0.141 h 2.801 z m 3.882,0.574 c 0,-0.023 -0.023,-0.106 -0.129,-0.106 -0.082,0 -0.105,0.059 -0.117,0.106 -0.293,0.777 -0.972,0.801 -1.113,0.801 -0.363,0 -0.727,-0.176 -0.973,-0.543 -0.234,-0.364 -0.234,-0.879 -0.234,-1.117 h 2.344 c 0.175,0 0.222,0 0.222,-0.188 0,-0.703 -0.386,-1.551 -1.511,-1.551 -0.997,0 -1.77,0.825 -1.77,1.813 0,1.031 0.867,1.832 1.875,1.832 1.008,0 1.406,-0.86 1.406,-1.047 z m -0.539,-1.07 h -2.015 c 0.07,-1.118 0.75,-1.305 1.043,-1.305 0.925,0 0.961,1.129 0.972,1.305 z m 3.848,-0.985 c 0,-0.285 -0.258,-0.508 -0.609,-0.508 -0.516,0 -0.868,0.387 -1.032,0.848 h -0.011 v -0.848 l -1.129,0.094 v 0.258 c 0.539,0 0.597,0.059 0.597,0.449 v 2.102 c 0,0.367 -0.093,0.367 -0.597,0.367 v 0.258 c 0.304,-0.024 0.75,-0.024 0.941,-0.024 0.469,0 0.492,0 1.008,0.024 v -0.258 h -0.164 c -0.586,0 -0.598,-0.094 -0.598,-0.379 v -1.187 c 0,-0.598 0.246,-1.457 1.008,-1.481 -0.047,0.035 -0.117,0.094 -0.117,0.285 0,0.246 0.187,0.364 0.351,0.364 0.188,0 0.352,-0.129 0.352,-0.364 z m 4.226,1.317 c 0,-1 -0.82,-1.86 -1.875,-1.86 -1.054,0 -1.878,0.86 -1.878,1.86 0,0.996 0.859,1.785 1.878,1.785 1.032,0 1.875,-0.789 1.875,-1.785 z m -0.714,-0.071 c 0,0.364 -0.012,0.809 -0.235,1.137 -0.211,0.32 -0.574,0.473 -0.926,0.473 -0.433,0 -0.761,-0.211 -0.937,-0.496 -0.199,-0.328 -0.223,-0.715 -0.223,-1.114 0,-0.308 0,-0.789 0.246,-1.129 0.211,-0.285 0.539,-0.437 0.914,-0.437 0.422,0 0.762,0.199 0.938,0.484 0.223,0.328 0.223,0.762 0.223,1.082 z m 10.625,1.774 v -0.258 c -0.516,0 -0.61,0 -0.61,-0.367 v -1.797 c 0,-0.649 -0.281,-1.106 -1.148,-1.106 -0.727,0 -1.102,0.508 -1.231,0.743 -0.14,-0.579 -0.597,-0.743 -1.117,-0.743 -0.773,0 -1.137,0.555 -1.242,0.766 h -0.012 v -0.766 l -1.148,0.094 v 0.258 c 0.539,0 0.609,0.059 0.609,0.449 v 2.102 c 0,0.367 -0.105,0.367 -0.609,0.367 v 0.258 c 0.34,-0.024 0.691,-0.024 0.902,-0.024 0.235,0 0.574,0 0.914,0.024 v -0.258 c -0.515,0 -0.609,0 -0.609,-0.367 v -1.446 c 0,-0.843 0.633,-1.234 1.137,-1.234 0.519,0 0.601,0.414 0.601,0.848 v 1.832 c 0,0.367 -0.094,0.367 -0.601,0.367 v 0.258 c 0.343,-0.024 0.695,-0.024 0.906,-0.024 0.234,0 0.574,0 0.914,0.024 v -0.258 c -0.516,0 -0.61,0 -0.61,-0.367 v -1.446 c 0,-0.843 0.633,-1.234 1.137,-1.234 0.516,0 0.598,0.414 0.598,0.848 v 1.832 c 0,0.367 -0.094,0.367 -0.598,0.367 v 0.258 c 0.34,-0.024 0.692,-0.024 0.903,-0.024 0.234,0 0.574,0 0.914,0.024 z m 4.207,-1.703 c 0,-1 -0.821,-1.86 -1.875,-1.86 -1.055,0 -1.875,0.86 -1.875,1.86 0,0.996 0.855,1.785 1.875,1.785 1.031,0 1.875,-0.789 1.875,-1.785 z m -0.715,-0.071 c 0,0.364 -0.012,0.809 -0.235,1.137 -0.211,0.32 -0.574,0.473 -0.925,0.473 -0.434,0 -0.762,-0.211 -0.938,-0.496 -0.199,-0.328 -0.222,-0.715 -0.222,-1.114 0,-0.308 0,-0.789 0.246,-1.129 0.211,-0.285 0.539,-0.437 0.914,-0.437 0.422,0 0.761,0.199 0.937,0.484 0.223,0.328 0.223,0.762 0.223,1.082 z m 5.629,1.774 v -0.258 c -0.551,0 -0.61,-0.059 -0.61,-0.461 v -4.828 l -1.187,0.094 v 0.257 c 0.539,0 0.598,0.059 0.598,0.446 v 1.691 c -0.27,-0.305 -0.645,-0.469 -1.067,-0.469 -0.996,0 -1.875,0.778 -1.875,1.813 0,0.973 0.797,1.797 1.793,1.797 0.481,0 0.867,-0.223 1.125,-0.504 v 0.504 z m -1.223,-0.988 c 0,0.14 0,0.175 -0.117,0.328 -0.223,0.32 -0.586,0.519 -0.961,0.519 -0.363,0 -0.691,-0.199 -0.879,-0.496 -0.211,-0.305 -0.258,-0.703 -0.258,-1.078 0,-0.461 0.071,-0.789 0.258,-1.07 0.188,-0.297 0.551,-0.52 0.961,-0.52 0.375,0 0.762,0.188 0.996,0.613 z m 5.024,0.023 c 0,-0.023 -0.024,-0.106 -0.129,-0.106 -0.082,0 -0.106,0.059 -0.118,0.106 -0.293,0.777 -0.972,0.801 -1.113,0.801 -0.363,0 -0.726,-0.176 -0.973,-0.543 -0.234,-0.364 -0.234,-0.879 -0.234,-1.117 h 2.344 c 0.176,0 0.223,0 0.223,-0.188 0,-0.703 -0.387,-1.551 -1.512,-1.551 -0.996,0 -1.77,0.825 -1.77,1.813 0,1.031 0.867,1.832 1.875,1.832 1.008,0 1.407,-0.86 1.407,-1.047 z m -0.54,-1.07 h -2.015 c 0.07,-1.118 0.75,-1.305 1.043,-1.305 0.926,0 0.961,1.129 0.972,1.305 z m 3.836,1 c 0,-0.375 -0.222,-0.942 -1.172,-1.118 -0.07,-0.011 -0.515,-0.093 -0.539,-0.093 -0.257,-0.059 -0.625,-0.223 -0.625,-0.539 0,-0.246 0.164,-0.579 0.93,-0.579 0.891,0 0.938,0.649 0.949,0.883 0.012,0.059 0.059,0.082 0.118,0.082 0.128,0 0.128,-0.058 0.128,-0.211 v -0.754 c 0,-0.117 0,-0.199 -0.105,-0.199 -0.035,0 -0.059,0 -0.188,0.129 -0.011,0 -0.093,0.07 -0.117,0.07 0,0 -0.023,0 -0.07,-0.023 -0.129,-0.094 -0.352,-0.176 -0.715,-0.176 -1.117,0 -1.363,0.602 -1.363,0.989 0,0.398 0.293,0.632 0.316,0.656 0.317,0.238 0.508,0.273 1.035,0.367 0.375,0.07 0.996,0.187 0.996,0.727 0,0.304 -0.21,0.683 -0.949,0.683 -0.801,0 -1.035,-0.625 -1.14,-1.047 -0.024,-0.105 -0.035,-0.152 -0.129,-0.152 -0.129,0 -0.129,0.07 -0.129,0.223 v 0.988 c 0,0.129 0,0.211 0.105,0.211 0.047,0 0.047,-0.012 0.2,-0.164 0.035,-0.035 0.128,-0.141 0.164,-0.176 0.367,0.316 0.73,0.34 0.941,0.34 1.02,0 1.359,-0.586 1.359,-1.117 z"
         style="fill:#6a4c93;fill-opacity:1;fill-rule:nonzero;stroke:none"
         transform="scale(1.3333333)" />
      <g
         id="g29">
        <path
           id="path22"
           d="m 153.375,213.395 c -0.098,-0.989 -0.496,-1.633 -0.508,-1.645 -0.176,-0.273 -0.469,-0.602 -0.996,-0.602 -1.031,0 -1.629,1.164 -1.629,1.446 0,0.07 0.07,0.094 0.117,0.094 0.082,0 0.106,-0.024 0.129,-0.094 0.246,-0.715 1.032,-0.821 1.266,-0.821 1.289,0 1.383,1.387 1.383,2.067 0,0.437 -0.024,0.508 -0.082,0.695 -0.176,0.563 -0.41,1.457 -0.41,1.68 0,0.023 0.011,0.176 0.128,0.176 0.094,0 0.165,-0.118 0.235,-0.317 0.222,-0.742 0.293,-1.269 0.34,-1.633 0.027,-0.164 0.484,-1.503 1.222,-2.906 0.094,-0.176 0.094,-0.187 0.094,-0.211 0,-0.012 0,-0.094 -0.117,-0.094 -0.035,0 -0.07,0.012 -0.094,0.036 -0.023,0.023 -0.656,1.199 -1.055,2.293 z"
           style="fill:#6a4c93;fill-opacity:1;fill-rule:nonzero;stroke:none"
           transform="scale(1.3333333)" />
        <path
           id="path23"
           d="m 157.055,212.414 c 0.047,-0.191 0.058,-0.25 0.668,-0.25 0.152,0 0.222,0 0.222,-0.152 0,-0.012 -0.011,-0.082 -0.105,-0.082 -0.141,0 -0.293,0.011 -0.445,0.011 -0.153,0 -0.329,0.012 -0.493,0.012 -0.14,0 -0.269,-0.012 -0.41,-0.012 -0.14,0 -0.293,-0.011 -0.433,-0.011 -0.036,0 -0.129,0 -0.129,0.14 0,0.094 0.082,0.094 0.187,0.094 0.106,0 0.258,0 0.387,0.047 0,0.062 0,0.098 -0.024,0.191 l -0.785,3.125 c -0.058,0.211 -0.07,0.258 -0.515,0.258 -0.141,0 -0.211,0 -0.211,0.141 0,0.094 0.07,0.094 0.187,0.094 h 3.168 c 0.153,0 0.164,-0.012 0.199,-0.118 0.059,-0.152 0.528,-1.351 0.528,-1.386 0,-0.059 -0.047,-0.094 -0.117,-0.094 -0.071,0 -0.094,0.035 -0.118,0.117 -0.269,0.672 -0.574,1.246 -1.644,1.246 h -0.738 c -0.118,0 -0.129,0 -0.2,-0.023 z"
           style="fill:#6a4c93;fill-opacity:1;fill-rule:nonzero;stroke:none"
           transform="scale(1.3333333)" />
        <path
           id="path24"
           d="m 161.516,214.559 c 0,0.515 -0.106,0.976 -0.61,1.468 -0.023,0.024 -0.047,0.035 -0.047,0.082 0,0.059 0.071,0.106 0.129,0.106 0.094,0 0.75,-0.621 0.75,-1.563 0,-0.519 -0.187,-0.859 -0.539,-0.859 -0.281,0 -0.433,0.223 -0.433,0.437 0,0.223 0.14,0.446 0.445,0.446 0.187,0 0.305,-0.117 0.305,-0.117 z m 5.55,-1.164 c -0.093,-0.989 -0.492,-1.633 -0.504,-1.645 -0.175,-0.273 -0.468,-0.602 -0.996,-0.602 -1.035,0 -1.632,1.164 -1.632,1.446 0,0.07 0.07,0.094 0.117,0.094 0.082,0 0.105,-0.024 0.129,-0.094 0.246,-0.715 1.031,-0.821 1.265,-0.821 1.293,0 1.387,1.387 1.387,2.067 0,0.437 -0.023,0.508 -0.082,0.695 -0.176,0.563 -0.41,1.457 -0.41,1.68 0,0.023 0.012,0.176 0.129,0.176 0.093,0 0.164,-0.118 0.234,-0.317 0.223,-0.742 0.293,-1.269 0.34,-1.633 0.023,-0.164 0.48,-1.503 1.219,-2.906 0.093,-0.176 0.093,-0.187 0.093,-0.211 0,-0.012 0,-0.094 -0.117,-0.094 -0.035,0 -0.07,0.012 -0.093,0.036 -0.024,0.023 -0.657,1.199 -1.055,2.293 z"
           style="fill:#6a4c93;fill-opacity:1;fill-rule:nonzero;stroke:none"
           transform="scale(1.3333333)" />
        <path
           id="path25"
           d="m 170.762,212.367 c 0.047,-0.191 0.047,-0.203 0.304,-0.203 h 0.59 c 0.598,0 1.032,0.156 1.032,0.625 0,0.211 -0.094,0.645 -0.504,0.883 -0.235,0.129 -0.551,0.199 -0.965,0.199 h -0.832 z m 1.222,1.621 c 0.586,-0.14 1.348,-0.543 1.348,-1.129 0,-0.504 -0.621,-0.929 -1.559,-0.929 h -1.937 c -0.106,0 -0.199,0 -0.199,0.14 0,0.094 0.093,0.094 0.199,0.094 0.105,0 0.258,0 0.375,0.047 0,0.062 0,0.098 -0.023,0.191 l -0.774,3.125 c -0.059,0.211 -0.07,0.258 -0.516,0.258 -0.128,0 -0.152,0 -0.175,0.012 -0.024,0.023 -0.047,0.105 -0.047,0.141 0,0.023 0.012,0.082 0.105,0.082 0.176,0 0.61,-0.024 0.785,-0.024 0.364,0 -0.023,0 0.422,0 0.129,0 0.27,0.024 0.399,0.024 0.035,0 0.07,0 0.093,-0.047 0.012,-0.012 0.036,-0.082 0.036,-0.106 -0.012,-0.082 -0.071,-0.082 -0.2,-0.082 -0.082,0 -0.164,-0.012 -0.234,-0.012 -0.105,-0.011 -0.152,-0.011 -0.152,-0.082 0,-0.023 0.011,-0.046 0.035,-0.105 l 0.375,-1.516 h 0.855 c 0.532,0 0.789,0.246 0.789,0.528 0,0.07 -0.046,0.285 -0.082,0.414 -0.07,0.281 -0.093,0.363 -0.093,0.468 0,0.446 0.41,0.672 0.925,0.672 0.563,0 0.832,-0.578 0.832,-0.707 0,-0.047 -0.035,-0.093 -0.117,-0.093 -0.082,0 -0.094,0.046 -0.105,0.093 -0.141,0.399 -0.434,0.504 -0.574,0.504 -0.165,0 -0.293,-0.058 -0.293,-0.41 0,-0.141 0.035,-0.469 0.058,-0.621 0,-0.059 0.024,-0.191 0.024,-0.238 0,-0.399 -0.317,-0.61 -0.575,-0.692 z"
           style="fill:#6a4c93;fill-opacity:1;fill-rule:nonzero;stroke:none"
           transform="scale(1.3333333)" />
      </g>
    </g>
    <path
       id="path26"
       d="m 140.44001,280.28986 c 0,-1.348 -1.09867,-2.40134 -2.396,-2.40134 -0.844,0 -1.35867,0.45334 -1.54667,0.66267 v -3.35467 l -1.57867,0.12534 v 0.34266 c 0.72,0 0.79734,0.0787 0.79734,0.59467 v 6.33333 h 0.344 l 0.37466,-0.656 c 0.25067,0.35867 0.75067,0.76534 1.484,0.76534 1.344,0 2.52134,-1.052 2.52134,-2.412 z m -0.95334,-0.0147 c 0,0.24933 0,1 -0.38,1.49867 -0.39066,0.49066 -0.89066,0.63066 -1.23466,0.63066 -0.51467,0 -0.93734,-0.26533 -1.21867,-0.692 -0.12533,-0.204 -0.12533,-0.204 -0.12533,-0.40666 v -2.084 c 0,-0.20267 0,-0.21867 0.15733,-0.40534 0.312,-0.412 0.812,-0.63066 1.296,-0.63066 0.54667,0 0.96933,0.328 1.172,0.66133 0.188,0.28133 0.33333,0.656 0.33333,1.428 z m 5.412,-1.70933 c 0,-0.38 -0.344,-0.67734 -0.81333,-0.67734 -0.68667,0 -1.156,0.516 -1.37467,1.13067 h -0.0147 v -1.13067 l -1.50133,0.12534 v 0.344 c 0.72,0 0.79733,0.0787 0.79733,0.59866 v 2.80267 c 0,0.48933 -0.12533,0.48933 -0.79733,0.48933 v 0.344 c 0.40666,-0.032 1,-0.032 1.25066,-0.032 0.62534,0 0.656,0 1.344,0.032 v -0.344 h -0.21866 c -0.78134,0 -0.79734,-0.12533 -0.79734,-0.50533 v -1.58267 c 0,-0.79733 0.328,-1.94266 1.344,-1.97466 -0.0627,0.0467 -0.156,0.12533 -0.156,0.38 0,0.328 0.24934,0.48533 0.468,0.48533 0.25067,0 0.46934,-0.172 0.46934,-0.48533 z m 5.792,3.068 v -0.59334 h -0.344 v 0.59334 c 0,0.44266 -0.156,0.61466 -0.37467,0.61466 -0.39066,0 -0.39066,-0.50533 -0.39066,-0.61466 v -2.224 c 0,-1.036 -1.016,-1.568 -1.98534,-1.568 -0.87466,0 -1.65599,0.328 -1.65599,1.03733 0,0.328 0.21866,0.51467 0.49999,0.51467 0.29734,0 0.484,-0.21867 0.484,-0.5 0,-0.24934 -0.156,-0.44267 -0.39066,-0.48934 0.39066,-0.26533 0.96933,-0.26533 1.048,-0.26533 0.59333,0 1.18666,0.412 1.18666,1.28667 v 0.328 c -0.60933,0.0307 -1.328,0.0627 -2.06266,0.37466 -0.93733,0.412 -1.124,1.02134 -1.124,1.38 0,0.912 1.07733,1.19334 1.812,1.19334 0.76533,0 1.24933,-0.43734 1.484,-0.86534 0.0467,0.412 0.328,0.80267 0.79733,0.80267 0.10933,0 1.016,-0.0307 1.016,-1.00533 z m -1.92267,-0.54667 c 0,1.036 -0.87466,1.31733 -1.296,1.31733 -0.548,0 -1.016,-0.37466 -1.016,-0.896 0,-0.70266 0.656,-1.42666 2.312,-1.47333 z m 4.86534,1.50533 v -0.344 c -0.688,0 -0.73467,-0.0627 -0.73467,-0.47466 v -3.88534 l -1.54667,0.12534 v 0.344 c 0.672,0 0.76534,0.0627 0.76534,0.584 v 2.81733 c 0,0.48933 -0.12534,0.48933 -0.79734,0.48933 v 0.344 c 0.40667,-0.032 1,-0.032 1.156,-0.032 0.14134,0 0.78134,0 1.15734,0.032 z m -0.60934,-6.412 c 0,-0.35866 -0.28133,-0.59333 -0.57866,-0.59333 -0.312,0 -0.59334,0.23467 -0.59334,0.59333 0,0.29734 0.24934,0.57867 0.59334,0.57867 0.328,0 0.57866,-0.28133 0.57866,-0.57867 z m 6.87467,6.412 v -0.344 c -0.73467,0 -0.81333,-0.0787 -0.81333,-0.61466 v -6.43734 l -1.57734,0.12534 v 0.34266 c 0.71867,0 0.79734,0.0787 0.79734,0.59467 v 2.25467 c -0.36,-0.40667 -0.86,-0.62534 -1.42267,-0.62534 -1.33333,0 -2.50533,1.03734 -2.50533,2.41734 0,1.29733 1.06266,2.396 2.396,2.396 0.64133,0 1.156,-0.29734 1.5,-0.672 v 0.672 z m -1.62533,-1.31733 c 0,0.18667 0,0.23333 -0.156,0.43733 -0.29734,0.42667 -0.78134,0.692 -1.28134,0.692 -0.484,0 -0.92133,-0.26533 -1.172,-0.66133 -0.28666,-0.40667 -0.34933,-0.93733 -0.34933,-1.43733 0,-0.61467 0.0947,-1.052 0.34933,-1.42667 0.25067,-0.396 0.73467,-0.69333 1.28134,-0.69333 0.5,0 1.016,0.25066 1.328,0.81733 z m 4.77066,1.31733 v -0.344 c -0.68666,0 -0.73466,-0.0627 -0.73466,-0.47466 v -3.88534 l -1.54667,0.12534 v 0.344 c 0.672,0 0.76533,0.0627 0.76533,0.584 v 2.81733 c 0,0.48933 -0.124,0.48933 -0.796,0.48933 v 0.344 c 0.40667,-0.032 1,-0.032 1.156,-0.032 0.14134,0 0.78134,0 1.156,0.032 z m -0.60933,-6.412 c 0,-0.35866 -0.28133,-0.59333 -0.57733,-0.59333 -0.31334,0 -0.59467,0.23467 -0.59467,0.59333 0,0.29734 0.25067,0.57867 0.59467,0.57867 0.328,0 0.57733,-0.28133 0.57733,-0.57867 z m 6.95867,6.412 v -0.344 c -0.672,0 -0.812,0 -0.812,-0.48933 v -2.396 c 0,-0.896 -0.396,-1.47467 -1.52134,-1.47467 -1.04666,0 -1.532,0.772 -1.656,1.02134 h -0.016 v -1.02134 l -1.53066,0.12534 v 0.344 c 0.71866,0 0.812,0.0787 0.812,0.59866 v 2.80267 c 0,0.48933 -0.14134,0.48933 -0.812,0.48933 v 0.344 c 0.452,-0.032 0.92133,-0.032 1.20266,-0.032 0.312,0 0.76534,0 1.21867,0.032 v -0.344 c -0.688,0 -0.812,0 -0.812,-0.48933 v -1.928 c 0,-1.124 0.85867,-1.64533 1.5,-1.64533 0.656,0 0.812,0.45866 0.812,1.13066 v 2.44267 c 0,0.48933 -0.12533,0.48933 -0.812,0.48933 v 0.344 c 0.452,-0.032 0.92133,-0.032 1.21867,-0.032 0.30133,0 0.75466,0 1.208,0.032 z m 5.77066,-4.28133 c 0,-0.172 -0.14,-0.532 -0.60933,-0.532 -0.172,0 -0.688,0.032 -1.172,0.48533 -0.26533,-0.188 -0.68667,-0.376 -1.188,-0.376 -1.04667,0 -1.812,0.74 -1.812,1.568 0,0.5 0.26533,0.88 0.484,1.084 -0.21867,0.26534 -0.312,0.60934 -0.312,0.87467 0,0.42133 0.21867,0.75467 0.45333,0.94267 -0.56266,0.156 -1.00533,0.56266 -1.00533,1.04666 0,0.77067 1.09867,1.36534 2.50533,1.36534 1.328,0 2.5,-0.532 2.5,-1.38134 0,-0.57733 -0.344,-1.01466 -0.688,-1.20266 -0.624,-0.33334 -1.156,-0.33334 -2.18666,-0.33334 h -0.59467 c -0.328,-0.0307 -0.59333,-0.312 -0.59333,-0.70266 0,-0.25067 0.0627,-0.344 0.12533,-0.43734 0.45333,0.26534 0.85867,0.312 1.124,0.312 1.048,0 1.82933,-0.73466 1.82933,-1.568 0,-0.40533 -0.188,-0.74933 -0.43866,-1.02 0.14133,-0.12533 0.5,-0.36 1.016,-0.36 -0.0467,0.0307 -0.0933,0.0787 -0.0933,0.25067 0,0.18667 0.14,0.33333 0.328,0.33333 0.156,0 0.328,-0.0947 0.328,-0.34933 z m -1.984,1.14533 c 0,0.39067 -0.0467,0.672 -0.21866,0.896 -0.23467,0.29734 -0.56267,0.36 -0.76667,0.36 -0.984,0 -0.984,-1.02133 -0.984,-1.256 0,-0.39066 0.0627,-0.672 0.21867,-0.87466 0.172,-0.25467 0.46933,-0.38 0.76533,-0.38 0.98533,0 0.98533,1.02 0.98533,1.25466 z m 1.20267,3.948 c 0,0.568 -0.812,1.068 -1.87467,1.068 -1.06266,0 -1.86,-0.5 -1.86,-1.068 0,-0.23466 0.15734,-0.85866 1.032,-0.85866 h 1.016 c 0.296,0 1.68667,0 1.68667,0.85866 z m 4.084,-2.75466 v -0.708 h -3.00533 v 0.708 z m 6.53067,-0.36 c 0,-1.33334 -1.07867,-2.40134 -2.35867,-2.40134 -0.42267,0 -1.032,0.10934 -1.584,0.66267 v -0.66267 l -1.57867,0.12534 v 0.344 c 0.75067,0 0.79734,0.0627 0.79734,0.52133 v 4.952 c 0,0.46933 -0.12534,0.46933 -0.79734,0.46933 v 0.36 c 0.45334,-0.032 0.92267,-0.032 1.204,-0.032 0.312,0 0.77067,0 1.224,0.032 v -0.36 c -0.69333,0 -0.81866,0 -0.81866,-0.46933 v -1.75467 c 0.50533,0.532 1.05333,0.62534 1.396,0.62534 1.344,0 2.516,-1.052 2.516,-2.412 z m -0.95334,0 c 0,1.21866 -0.76533,2.11466 -1.62533,2.11466 -0.37467,0 -0.85867,-0.156 -1.208,-0.692 -0.12533,-0.188 -0.12533,-0.204 -0.12533,-0.40666 v -2.25467 c 0.256,-0.43867 0.78666,-0.83333 1.45866,-0.83333 0.81334,0 1.5,0.91066 1.5,2.072 z m 5.41734,-1.724 c 0,-0.38 -0.34934,-0.67734 -0.81867,-0.67734 -0.68667,0 -1.156,0.516 -1.37467,1.13067 h -0.016 v -1.13067 l -1.5,0.12534 v 0.344 c 0.72,0 0.79734,0.0787 0.79734,0.59866 v 2.80267 c 0,0.48933 -0.12534,0.48933 -0.79734,0.48933 v 0.344 c 0.40667,-0.032 1,-0.032 1.25067,-0.032 0.62533,0 0.656,0 1.344,0.032 v -0.344 H 188.128 c -0.78133,0 -0.79733,-0.12533 -0.79733,-0.50533 v -1.58267 c 0,-0.79733 0.328,-1.94266 1.344,-1.97466 -0.0627,0.0467 -0.156,0.12533 -0.156,0.38 0,0.328 0.24933,0.48533 0.468,0.48533 0.25067,0 0.47467,-0.172 0.47467,-0.48533 z m 5.64,1.756 c 0,-1.33334 -1.09867,-2.48 -2.50533,-2.48 -1.40534,0 -2.50001,1.14666 -2.50001,2.48 0,1.328 1.14134,2.38 2.50001,2.38 1.376,0 2.50533,-1.052 2.50533,-2.38 z m -0.95867,-0.0947 c 0,0.48533 -0.0147,1.07867 -0.312,1.516 -0.28133,0.42667 -0.76533,0.63067 -1.23466,0.63067 -0.57734,0 -1.01467,-0.28134 -1.24934,-0.66134 -0.26533,-0.43733 -0.29733,-0.95333 -0.29733,-1.48533 0,-0.41067 0,-1.052 0.328,-1.50533 0.28133,-0.38 0.71867,-0.58267 1.21867,-0.58267 0.56266,0 1.016,0.26533 1.25066,0.64533 0.296,0.43734 0.296,1.016 0.296,1.44267 z m 5.03734,1.032 v -0.59467 h -0.328 v 0.57867 c 0,0.74 -0.328,1.13067 -0.73467,1.13067 -0.71867,0 -0.71867,-0.928 -0.71867,-1.09867 v -2.93333 h 1.59334 v -0.344 h -1.59334 v -1.95734 h -0.328 c 0,0.97334 -0.43733,1.97334 -1.42266,2.00534 v 0.296 h 0.95333 v 2.91733 c 0,1.25467 0.95333,1.44267 1.43733,1.44267 0.71867,0 1.14134,-0.64134 1.14134,-1.44267 z m 5.33333,0.0467 c 0,-0.0307 -0.032,-0.14134 -0.172,-0.14134 -0.10933,0 -0.14133,0.0787 -0.156,0.14134 -0.39067,1.036 -1.29733,1.068 -1.48533,1.068 -0.484,0 -0.968,-0.23467 -1.296,-0.724 -0.31334,-0.48534 -0.31334,-1.172 -0.31334,-1.48934 h 3.12534 c 0.23466,0 0.29733,0 0.29733,-0.25066 0,-0.93734 -0.516,-2.068 -2.016,-2.068 -1.328,0 -2.364,1.1 -2.364,2.41733 0,1.37467 1.16133,2.44267 2.50533,2.44267 1.34267,0 1.87467,-1.14667 1.87467,-1.396 z m -0.71867,-1.42667 h -2.688 c 0.0933,-1.49067 1,-1.74 1.39067,-1.74 1.23467,0 1.28133,1.50533 1.29733,1.74 z m 5.73866,1.42667 c 0,-0.12534 -0.14,-0.12534 -0.17066,-0.12534 -0.0787,0 -0.12534,0.016 -0.15734,0.12534 -0.0773,0.21866 -0.37466,1.068 -1.43732,1.068 -0.656,0 -1.61467,-0.52134 -1.61467,-2.09867 0,-1.52133 0.79733,-2.10533 1.568,-2.10533 0.0933,0 0.656,0 1.03067,0.188 -0.296,0.0933 -0.34267,0.34933 -0.34267,0.47333 0,0.28133 0.20267,0.5 0.5,0.5 0.28133,0 0.49999,-0.18667 0.49999,-0.51467 0,-0.66133 -0.71866,-0.97466 -1.71866,-0.97466 -1.47466,0 -2.47466,1.17733 -2.47466,2.448 0,1.344 1.10933,2.412 2.44266,2.412 1.5,0 1.87466,-1.256 1.87466,-1.396 z m 4.084,-0.0467 v -0.59467 H 213.284 v 0.57867 c 0,0.74 -0.328,1.13067 -0.73467,1.13067 -0.71866,0 -0.71866,-0.928 -0.71866,-1.09867 v -2.93333 h 1.59333 v -0.344 h -1.59333 v -1.95734 h -0.328 c 0,0.97334 -0.43734,1.97334 -1.42134,2.00534 v 0.296 h 0.952 v 2.91733 c 0,1.25467 0.95334,1.44267 1.43867,1.44267 0.71867,0 1.14533,-0.64134 1.14533,-1.44267 z m 5.328,0.0467 c 0,-0.0307 -0.0307,-0.14134 -0.172,-0.14134 -0.10933,0 -0.14,0.0787 -0.156,0.14134 -0.396,1.036 -1.30266,1.068 -1.48933,1.068 -0.48533,0 -0.96933,-0.23467 -1.29733,-0.724 -0.312,-0.48534 -0.312,-1.172 -0.312,-1.48934 h 3.12933 c 0.23467,0 0.29733,0 0.29733,-0.25066 0,-0.93734 -0.516,-2.068 -2.02133,-2.068 -1.328,0 -2.35867,1.1 -2.35867,2.41733 0,1.37467 1.156,2.44267 2.5,2.44267 1.34934,0 1.88,-1.14667 1.88,-1.396 z m -0.724,-1.42667 h -2.688 c 0.0947,-1.49067 1,-1.74 1.39067,-1.74 1.23467,0 1.28133,1.50533 1.29733,1.74 z m 6.948,2.71333 v -0.344 c -0.73466,0 -0.812,-0.0787 -0.812,-0.61466 v -6.43734 l -1.57866,0.12534 v 0.34266 c 0.71866,0 0.79733,0.0787 0.79733,0.59467 v 2.25467 c -0.36,-0.40667 -0.86,-0.62534 -1.42267,-0.62534 -1.328,0 -2.50533,1.03734 -2.50533,2.41734 0,1.29733 1.068,2.396 2.396,2.396 0.64133,0 1.156,-0.29734 1.5,-0.672 v 0.672 z m -1.62533,-1.31733 c 0,0.18667 0,0.23333 -0.156,0.43733 -0.29733,0.42667 -0.78133,0.692 -1.28133,0.692 -0.484,0 -0.92134,-0.26533 -1.172,-0.66133 -0.28134,-0.40667 -0.344,-0.93733 -0.344,-1.43733 0,-0.61467 0.0947,-1.052 0.344,-1.42667 0.25066,-0.396 0.73466,-0.69333 1.28133,-0.69333 0.5,0 1.016,0.25066 1.328,0.81733 z m 4.28667,1.27067 c 0,-0.57867 -0.20267,-1.13067 -0.71867,-1.13067 -0.344,0 -0.57867,0.26533 -0.57867,0.58267 0,0.31333 0.21867,0.59466 0.59467,0.59466 0.23467,0 0.37467,-0.12533 0.40533,-0.156 0,0.312 0,1.192 -0.812,1.94267 -0.0307,0.0307 -0.0627,0.0613 -0.0627,0.124 0,0.0947 0.10933,0.15733 0.156,0.15733 0.14133,0 1.016,-0.82933 1.016,-2.11466 z m 8.62533,-6.69334 c 0,-0.45333 -0.44267,-0.77066 -1.00533,-0.77066 -0.79734,0 -1.75067,0.58266 -1.75067,1.724 v 1.192 h -0.87467 v 0.344 H 233.7 v 3.41733 c 0,0.48933 -0.124,0.48933 -0.796,0.48933 v 0.344 c 0.40533,-0.032 0.984,-0.032 1.24933,-0.032 0.62534,0 0.64134,0 1.328,0.032 v -0.344 h -0.20266 c -0.78134,0 -0.79734,-0.12533 -0.79734,-0.50533 v -3.40133 h 1.26667 v -0.344 h -1.29733 v -1.208 c 0,-0.92134 0.516,-1.40534 0.984,-1.40534 0.172,0 0.26533,0.0467 0.31333,0.0613 -0.188,0.0947 -0.25067,0.26666 -0.25067,0.40666 0,0.28134 0.20267,0.484 0.484,0.484 0.28667,0 0.47467,-0.20266 0.47467,-0.484 z m 4.92133,5.78134 v -0.59334 h -0.344 v 0.59334 c 0,0.44266 -0.156,0.61466 -0.37466,0.61466 -0.39067,0 -0.39067,-0.50533 -0.39067,-0.61466 v -2.224 c 0,-1.036 -1.016,-1.568 -1.984,-1.568 -0.87467,0 -1.656,0.328 -1.656,1.03733 0,0.328 0.21867,0.51467 0.5,0.51467 0.296,0 0.484,-0.21867 0.484,-0.5 0,-0.24934 -0.156,-0.44267 -0.39067,-0.48934 0.39067,-0.26533 0.96934,-0.26533 1.04667,-0.26533 0.59333,0 1.188,0.412 1.188,1.28667 v 0.328 c -0.60933,0.0307 -1.328,0.0627 -2.06267,0.37466 -0.93733,0.412 -1.12533,1.02134 -1.12533,1.38 0,0.912 1.07867,1.19334 1.81333,1.19334 0.76534,0 1.24934,-0.43734 1.484,-0.86534 0.0467,0.412 0.328,0.80267 0.79734,0.80267 0.10933,0 1.01466,-0.0307 1.01466,-1.00533 z m -1.92133,-0.54667 c 0,1.036 -0.87467,1.31733 -1.29733,1.31733 -0.54667,0 -1.016,-0.37466 -1.016,-0.896 0,-0.70266 0.65733,-1.42666 2.31333,-1.47333 z m 8.072,1.50533 v -0.344 c -0.71867,0 -0.812,-0.0787 -0.812,-0.61466 v -3.74534 l -1.60933,0.12534 v 0.344 c 0.71866,0 0.812,0.0787 0.812,0.59866 v 1.84934 c 0,0.92133 -0.56134,1.59866 -1.35867,1.59866 -0.912,0 -0.95867,-0.45333 -0.95867,-0.98933 v -3.52667 l -1.60933,0.12534 v 0.344 c 0.81333,0 0.81333,0.0307 0.81333,0.98933 v 1.59867 c 0,0.76666 0,1.756 1.692,1.756 1,0 1.39067,-0.76534 1.43734,-0.86534 h 0.016 v 0.86534 z m 3.14667,0 v -0.344 c -0.688,0 -0.81334,0 -0.81334,-0.48933 v -6.56267 l -1.57733,0.12534 v 0.34266 c 0.71867,0 0.79733,0.0787 0.79733,0.59467 v 5.5 c 0,0.48933 -0.12533,0.48933 -0.79733,0.48933 v 0.344 c 0.40667,-0.032 1,-0.032 1.188,-0.032 0.20267,0 0.78,0 1.20267,0.032 z m 4.04133,-1.33333 v -0.59467 h -0.328 v 0.57867 c 0,0.74 -0.328,1.13067 -0.73467,1.13067 -0.71866,0 -0.71866,-0.928 -0.71866,-1.09867 v -2.93333 h 1.59333 v -0.344 h -1.59333 v -1.95734 h -0.328 c 0,0.97334 -0.43734,1.97334 -1.42134,2.00534 v 0.296 h 0.95334 v 2.91733 c 0,1.25467 0.952,1.44267 1.43733,1.44267 0.71867,0 1.14,-0.64134 1.14,-1.44267 z m 3.77067,-0.60933 v -0.708 h -3 v 0.708 z m 4.39066,0.60933 v -0.59467 h -0.328 v 0.57867 c 0,0.74 -0.328,1.13067 -0.73466,1.13067 -0.71867,0 -0.71867,-0.928 -0.71867,-1.09867 v -2.93333 h 1.59467 v -0.344 H 261.096 v -1.95734 h -0.328 c 0,0.97334 -0.43733,1.97334 -1.42667,2.00534 v 0.296 H 260.3 v 2.91733 c 0,1.25467 0.952,1.44267 1.43733,1.44267 0.71867,0 1.14,-0.64134 1.14,-1.44267 z m 5.95867,-0.93733 c 0,-1.33334 -1.09333,-2.48 -2.50533,-2.48 -1.40667,0 -2.5,1.14666 -2.5,2.48 0,1.328 1.14133,2.38 2.5,2.38 1.38,0 2.50533,-1.052 2.50533,-2.38 z m -0.95333,-0.0947 c 0,0.48533 -0.016,1.07867 -0.312,1.516 -0.28134,0.42667 -0.76534,0.63067 -1.24,0.63067 -0.57867,0 -1.016,-0.28134 -1.24934,-0.66134 -0.26666,-0.43733 -0.29733,-0.95333 -0.29733,-1.48533 0,-0.41067 0,-1.052 0.328,-1.50533 0.28133,-0.38 0.71867,-0.58267 1.21867,-0.58267 0.568,0 1.02133,0.26533 1.25466,0.64533 0.29734,0.43734 0.29734,1.016 0.29734,1.44267 z m 4.12533,2.36533 v -0.344 c -0.688,0 -0.81333,0 -0.81333,-0.48933 v -6.56267 l -1.57734,0.12534 v 0.34266 c 0.71867,0 0.79734,0.0787 0.79734,0.59467 v 5.5 c 0,0.48933 -0.12534,0.48933 -0.79734,0.48933 v 0.344 c 0.40667,-0.032 1,-0.032 1.188,-0.032 0.20267,0 0.78,0 1.20267,0.032 z m 4.984,-1.28666 c 0,-0.0307 -0.0307,-0.14134 -0.172,-0.14134 -0.10933,0 -0.14,0.0787 -0.156,0.14134 -0.39067,1.036 -1.29733,1.068 -1.484,1.068 -0.484,0 -0.96933,-0.23467 -1.29733,-0.724 -0.312,-0.48534 -0.312,-1.172 -0.312,-1.48934 h 3.12533 c 0.23333,0 0.296,0 0.296,-0.25066 0,-0.93734 -0.516,-2.068 -2.016,-2.068 -1.328,0 -2.35867,1.1 -2.35867,2.41733 0,1.37467 1.156,2.44267 2.5,2.44267 1.344,0 1.87467,-1.14667 1.87467,-1.396 z m -0.71867,-1.42667 h -2.688 c 0.0947,-1.49067 1,-1.74 1.39067,-1.74 1.23467,0 1.28133,1.50533 1.29733,1.74 z m 5.13067,-1.31333 c 0,-0.38 -0.344,-0.67734 -0.81333,-0.67734 -0.68667,0 -1.156,0.516 -1.37467,1.13067 H 279.2 v -1.13067 l -1.504,0.12534 v 0.344 c 0.72267,0 0.80133,0.0787 0.80133,0.59866 v 2.80267 c 0,0.48933 -0.12533,0.48933 -0.80133,0.48933 v 0.344 c 0.41067,-0.032 1.004,-0.032 1.25467,-0.032 0.62533,0 0.656,0 1.344,0.032 v -0.344 H 280.076 c -0.78133,0 -0.79733,-0.12533 -0.79733,-0.50533 v -1.58267 c 0,-0.79733 0.328,-1.94266 1.344,-1.97466 -0.0627,0.0467 -0.156,0.12533 -0.156,0.38 0,0.328 0.24933,0.48533 0.468,0.48533 0.25066,0 0.46933,-0.172 0.46933,-0.48533 z m 5.79067,3.068 v -0.59334 H 286.852 v 0.59334 c 0,0.44266 -0.156,0.61466 -0.376,0.61466 -0.39067,0 -0.39067,-0.50533 -0.39067,-0.61466 v -2.224 c 0,-1.036 -1.01466,-1.568 -1.984,-1.568 -0.87466,0 -1.656,0.328 -1.656,1.03733 0,0.328 0.21867,0.51467 0.5,0.51467 0.29734,0 0.484,-0.21867 0.484,-0.5 0,-0.24934 -0.156,-0.44267 -0.39066,-0.48934 0.39066,-0.26533 0.96933,-0.26533 1.04666,-0.26533 0.59467,0 1.188,0.412 1.188,1.28667 v 0.328 c -0.60933,0.0307 -1.328,0.0627 -2.06266,0.37466 -0.93734,0.412 -1.12534,1.02134 -1.12534,1.38 0,0.912 1.07867,1.19334 1.81334,1.19334 0.76533,0 1.24933,-0.43734 1.484,-0.86534 0.0467,0.412 0.328,0.80267 0.79733,0.80267 0.10933,0 1.01467,-0.0307 1.01467,-1.00533 z m -1.92134,-0.54667 c 0,1.036 -0.87466,1.31733 -1.29733,1.31733 -0.54667,0 -1.01467,-0.37466 -1.01467,-0.896 0,-0.70266 0.656,-1.42666 2.312,-1.47333 z m 8.07334,1.50533 v -0.344 c -0.672,0 -0.81334,0 -0.81334,-0.48933 v -2.396 c 0,-0.896 -0.39066,-1.47467 -1.51466,-1.47467 -1.04667,0 -1.532,0.772 -1.656,1.02134 h -0.016 v -1.02134 l -1.53734,0.12534 v 0.344 c 0.71867,0 0.81334,0.0787 0.81334,0.59866 v 2.80267 c 0,0.48933 -0.14134,0.48933 -0.81334,0.48933 v 0.344 c 0.45334,-0.032 0.92267,-0.032 1.204,-0.032 0.31734,0 0.77067,0 1.224,0.032 v -0.344 c -0.688,0 -0.81333,0 -0.81333,-0.48933 v -1.928 c 0,-1.124 0.86,-1.64533 1.5,-1.64533 0.65733,0 0.81333,0.45866 0.81333,1.13066 v 2.44267 c 0,0.48933 -0.12533,0.48933 -0.81333,0.48933 v 0.344 c 0.45333,-0.032 0.92267,-0.032 1.21867,-0.032 0.29733,0 0.75066,0 1.204,0.032 z m 3.73466,-1.33333 v -0.59467 H 296.752 v 0.57867 c 0,0.74 -0.328,1.13067 -0.73333,1.13067 -0.71867,0 -0.71867,-0.928 -0.71867,-1.09867 v -2.93333 h 1.59333 v -0.344 H 295.3 v -1.95734 h -0.328 c 0,0.97334 -0.43867,1.97334 -1.428,2.00534 v 0.296 h 0.95867 v 2.91733 c 0,1.25467 0.95333,1.44267 1.43733,1.44267 0.71867,0 1.14133,-0.64134 1.14133,-1.44267 z"
       style="fill:#6a4c93;fill-opacity:1;fill-rule:nonzero;stroke:none;stroke-width:1.33333"
       sodipodi:nodetypes="ssccccscccssscscsscscssscccccssccsccssscssssccsssssssscssccsscssssscsccscccssccscsssssccscccscssscccscscscscsccscccssccscsssssccssscccccssccsccsssssccscsscsscscssscscscssccsssscsscsssssssscccccssccccssccsccscsssscscsssscccccssccsccssscssssssssscscscscssccssscccccccccssssscsccssssssccscsscssscssssssssccssscccccccccssssscsccssssssccscccscccscssscccscscscscsssssccssssssccccsccsccssccccsscssssccsssssssscssccsscssssscsccscccsssscccsssccccccscccssccscsccssscccccccccssscccccsccssscccccccccssssssssscscscscsccscccssccscsscsccssssssccscsscccccssccsccssscssssccsssssssscssccsscssssscsccssscccccssccsccsssssccscsccssscccccccccsss" />
    <path
       id="path27"
       d="M 77.066,-121.688 H 247.673"
       style="fill:none;stroke:#808080;stroke-width:0.399732;stroke-linecap:butt;stroke-linejoin:miter;stroke-miterlimit:10;stroke-dasharray:2.99807, 2.99807;stroke-dashoffset:0;stroke-opacity:1"
       transform="scale(1.3302987,-1.3333333)" />
    <path
       id="path28"
       d="m 255.52,121.777 c 0.027,-0.027 0.042,-0.097 0.042,-0.125 0,-0.031 -0.015,-0.14 -0.14,-0.14 -0.113,0 -0.113,0.027 -0.211,0.238 -0.621,1.398 -1.07,1.949 -2.621,1.949 h -1.746 c -0.082,-0.031 -0.11,-0.031 -0.11,-0.101 0,-0.071 0.012,-0.141 0.028,-0.211 l 0.66,-2.61 h 1.027 c 0.707,0 0.848,0.114 0.848,0.422 0,0 0,0.156 -0.07,0.422 -0.016,0.059 -0.032,0.113 -0.032,0.145 0,0.011 0.016,0.125 0.145,0.125 0.109,0 0.14,-0.055 0.18,-0.211 l 0.507,-2.004 c 0,-0.028 0.028,-0.184 0.028,-0.199 0,-0.098 -0.071,-0.141 -0.141,-0.141 -0.125,0 -0.125,0.07 -0.184,0.226 -0.179,0.747 -0.449,0.891 -1.265,0.891 h -0.957 l 0.578,-2.289 c 0.082,-0.352 0.082,-0.367 0.476,-0.367 h 1.493 c 1.156,0 1.523,0.226 1.523,1.074 0,0.199 -0.058,0.438 -0.058,0.621 0,0.125 0.07,0.168 0.156,0.168 0.125,0 0.14,-0.082 0.156,-0.254 L 256,117.785 c 0.012,-0.058 0.012,-0.113 0.012,-0.172 0,-0.125 -0.11,-0.125 -0.282,-0.125 h -5.054 c -0.184,0 -0.297,0 -0.297,0.184 0,0.125 0.129,0.125 0.297,0.125 0.027,0 0.199,0 0.351,0.015 0.211,0.028 0.227,0.055 0.227,0.141 0,0.043 -0.016,0.098 -0.027,0.156 l -1.282,5.137 c -0.086,0.367 -0.113,0.453 -0.816,0.453 -0.184,0 -0.297,0 -0.297,0.168 0,0.141 0.125,0.141 0.281,0.141 h 5.184 c 0.238,0 0.254,0 0.324,-0.168 z"
       style="fill:#808080;fill-opacity:1;fill-rule:nonzero;stroke:none"
       transform="scale(1.3333333)" />
    <path
       id="path29"
       d="m 266.168,120.82 c 0.141,0 0.34,0 0.34,-0.226 0,-0.227 -0.227,-0.227 -0.379,-0.227 h -6.016 c -0.152,0 -0.379,0 -0.379,0.227 0,0.226 0.196,0.226 0.34,0.226 z m -0.039,2.032 c 0.152,0 0.379,0 0.379,-0.227 0,-0.227 -0.199,-0.227 -0.34,-0.227 h -6.094 c -0.144,0 -0.34,0 -0.34,0.227 0,0.227 0.227,0.227 0.379,0.227 z m 8.473,-1.907 c 0,-1.031 -0.114,-1.652 -0.422,-2.257 -0.422,-0.848 -1.2,-1.059 -1.735,-1.059 -1.195,0 -1.648,0.902 -1.773,1.172 -0.352,0.691 -0.367,1.652 -0.367,2.144 0,0.637 0.031,1.61 0.492,2.371 0.437,0.707 1.141,0.891 1.648,0.891 0.465,0 1.282,-0.141 1.762,-1.09 0.352,-0.691 0.395,-1.551 0.395,-2.172 z m -2.157,2.993 c -0.324,0 -0.984,-0.157 -1.183,-1.157 -0.11,-0.551 -0.11,-1.453 -0.11,-1.949 0,-0.664 0,-1.34 0.11,-1.863 0.199,-0.973 0.945,-1.071 1.183,-1.071 0.325,0 0.989,0.153 1.184,1.028 0.113,0.539 0.113,1.258 0.113,1.906 0,0.566 0,1.426 -0.113,1.961 -0.195,1.019 -0.859,1.145 -1.184,1.145 z"
       style="fill:#808080;fill-opacity:1;fill-rule:nonzero;stroke:none"
       transform="scale(1.3333333)" />
  </g>
</svg>
